<svg width="103" height="32" viewBox="0 0 103 32" fill="none" xmlns="http://www.w3.org/2000/svg">    <mask id="path-1-outside-1_0_283" maskUnits="userSpaceOnUse" x="0.00012207" y="7.36218" width="100" height="23" fill="black">        <rect fill="white" x="0.00012207" y="7.36218" width="100" height="23"/>        <path d="M19.5056 29.4991C18.4188 29.4991 17.5512 29.2321 16.9029 28.6982C16.2545 28.1643 15.7016 27.2586 15.2439 25.981L14.0713 22.8348C13.7852 21.9768 13.442 21.3094 13.0416 20.8327C12.6602 20.3369 12.1931 19.9841 11.6401 19.7744C11.1062 19.5456 10.4388 19.4312 9.63794 19.4312H7.693V18.3443H9.80955C10.6867 18.3443 11.4208 18.2108 12.0119 17.9439C12.6221 17.6578 13.1465 17.1907 13.585 16.5424C14.0427 15.875 14.4526 14.9788 14.8149 13.8538C15.2725 12.519 15.7302 11.4607 16.1878 10.679C16.6454 9.87809 17.1603 9.30605 17.7323 8.96283C18.3044 8.6196 18.9717 8.44799 19.7345 8.44799C20.5735 8.44799 21.2504 8.65774 21.7652 9.07723C22.28 9.49673 22.5375 10.0497 22.5375 10.7362C22.5375 11.3082 22.3563 11.7754 21.994 12.1377C21.6508 12.4809 21.1741 12.6525 20.5639 12.6525C20.1635 12.6525 19.8298 12.5858 19.5628 12.4523C19.315 12.2997 19.1052 12.1281 18.9336 11.9374C18.762 11.7277 18.5808 11.5465 18.3902 11.394C18.2186 11.2415 18.0088 11.1652 17.7609 11.1652C17.5512 11.1652 17.351 11.2605 17.1603 11.4512C16.9887 11.6228 16.798 11.9374 16.5882 12.3951C16.3785 12.8527 16.1306 13.4915 15.8446 14.3114C15.5967 15.0169 15.3393 15.608 15.0723 16.0847C14.8244 16.5424 14.548 16.9333 14.2429 17.2574C13.9568 17.5816 13.6136 17.8581 13.2132 18.0869L13.1274 17.6292C14.1189 17.8009 14.9293 18.0678 15.5586 18.4301C16.2069 18.7924 16.7598 19.3072 17.2175 19.9746C17.6751 20.6229 18.1041 21.4905 18.5046 22.5774L19.7631 26.0096C19.9728 26.6008 20.1921 27.0107 20.4209 27.2395C20.6688 27.4684 20.9929 27.5732 21.3934 27.5542C21.6413 27.5542 21.8605 27.516 22.0512 27.4397C22.261 27.3444 22.4803 27.1919 22.7091 26.9821L23.2525 27.8116C22.7567 28.3836 22.2038 28.8126 21.5936 29.0987C20.9834 29.3656 20.2874 29.4991 19.5056 29.4991ZM1.77524 28.8031L1.60707 28.4107C2.50327 28.3726 2.63997 28.1888 3.05947 28.0744C3.49803 27.96 3.77183 27.4647 3.90531 27.1214C4.03879 26.7782 4.03194 26.2099 4.03194 25.5234V12.4237C4.03194 11.7372 4.67445 10.7974 4.52191 10.4732C4.38843 10.13 4.10241 9.89166 3.66385 9.75818C3.24435 9.62471 1.87725 9.98297 1.00012 9.9639V8.84842C1.47682 8.86749 2.15374 8.88655 3.03087 8.90562C3.908 8.92469 4.95674 8.93422 6.17709 8.93422C7.35931 8.93422 8.36991 8.92469 9.20891 8.90562C10.0479 8.88655 10.6962 8.86749 11.1538 8.84842V9.9639C10.353 9.98297 8.86568 9.45654 8.46525 9.59002C8.08389 9.72349 7.82648 9.96185 7.693 10.3051C7.55952 10.6292 8.27756 11.7372 8.27756 12.4237V25.5234C8.27756 26.2099 8.31225 26.8903 8.44573 27.2335C8.59827 27.5577 8.87522 27.8288 9.29471 27.9623C9.73328 28.0767 9.92289 28.3726 10.8 28.4107L10.8 29.0129C10.2852 28.9747 10.1909 29.0415 9.29471 29.0415C8.41758 29.0224 7.38791 29.0129 6.20569 29.0129C5.00441 29.0129 3.95567 29.0224 3.05947 29.0415C2.18234 29.0415 2.27101 28.7649 1.77524 28.8031Z"/>        <path d="M28.2096 29.0987V27.9832C29.0867 27.9451 29.735 27.8688 30.1545 27.7544C30.5931 27.6209 30.8791 27.3921 31.0126 27.0679C31.1651 26.7247 31.2414 26.2099 31.2414 25.5234V12.4237C31.2414 11.7372 31.1651 11.2319 31.0126 10.9078C30.8791 10.5645 30.5931 10.3262 30.1545 10.1927C29.735 10.0592 29.0867 9.98297 28.2096 9.9639V8.84842C28.4575 8.86749 28.7912 8.88655 29.2107 8.90562C29.6302 8.90562 30.1545 8.90562 30.7838 8.90562C31.4321 8.90562 32.1853 8.90562 33.0433 8.90562C34.3018 8.90562 35.341 8.90562 36.161 8.90562C37 8.88655 37.6387 8.87702 38.0773 8.87702C40.7278 8.87702 42.749 9.39186 44.1409 10.4215C45.5329 11.4321 46.2289 12.9004 46.2289 14.8262C46.2289 16.161 45.8857 17.3051 45.1992 18.2585C44.5128 19.2119 43.5212 19.946 42.2246 20.4608C40.928 20.9566 39.91 22.0645 38.0795 22.0645C37.6791 22.0645 37.4159 22.2018 37.0155 22.1827C36.6151 22.1446 36.7085 22.2399 36.3653 22.1827C36.0221 22.1064 35.9594 22.0054 35.5968 22.36V21.2445C35.6639 21.828 36.085 21.5153 36.5426 21.5916C37.0193 21.6488 37.0327 21.5325 37.5475 21.5325C39.1492 21.5325 39.822 19.6791 40.5657 18.8591C41.3093 18.0201 41.6812 16.714 41.6812 14.9407C41.6812 13.2245 41.3475 11.966 40.6801 11.1652C40.0318 10.3643 39.0116 9.9639 37.6197 9.9639H35.5889V25.4376C35.5889 26.1431 35.6747 26.677 35.8463 27.0393C36.037 27.3825 36.4089 27.6209 36.9618 27.7544C37.5339 27.8878 38.3824 27.9641 39.5074 27.9832V29.0987C39.1451 29.0796 38.6684 29.0701 38.0773 29.0701C37.4862 29.051 36.7997 29.0415 36.018 29.0415C35.2552 29.0224 34.4258 29.0129 33.5296 29.0129C32.3855 29.0129 31.3749 29.0224 30.4978 29.0415C29.6206 29.0605 28.8579 29.0796 28.2096 29.0987Z"/>        <path d="M61.9778 29.4133C59.8803 29.4133 58.0402 28.9843 56.4576 28.1262C54.894 27.2491 53.6736 26.0287 52.7965 24.4651C51.9194 22.9016 51.4808 21.0615 51.4808 18.9449C51.4808 16.8475 51.9194 15.0074 52.7965 13.4247C53.6927 11.8421 54.9226 10.6027 56.4862 9.70648C58.0688 8.81028 59.9089 8.36218 62.0064 8.36218C64.1038 8.36218 65.9439 8.80075 67.5266 9.67788C69.1092 10.5359 70.3296 11.7468 71.1876 13.3103C72.0648 14.8739 72.5033 16.714 72.5033 18.8305C72.5033 20.9089 72.0648 22.749 71.1876 24.3507C70.3105 25.9334 69.0806 27.1728 67.498 28.069C65.9153 28.9652 64.0752 29.4133 61.9778 29.4133ZM62.035 28.355C63.179 28.355 64.1992 27.9641 65.0954 27.1823C65.9916 26.3815 66.6876 25.2755 67.1833 23.8645C67.6982 22.4344 67.9556 20.7659 67.9556 18.8591C67.9556 16.9333 67.6886 15.2648 67.1547 13.8538C66.6208 12.4427 65.8962 11.3559 64.981 10.5931C64.0848 9.81135 63.0742 9.42046 61.9492 9.42046C60.8051 9.42046 59.7849 9.82089 58.8887 10.6217C57.9925 11.4035 57.287 12.5095 56.7722 13.9396C56.2764 15.3506 56.0285 17.0095 56.0285 18.9163C56.0285 20.8422 56.2955 22.5107 56.8294 23.9217C57.3633 25.3327 58.0879 26.4291 59.0032 27.2109C59.9184 27.9737 60.929 28.355 62.035 28.355Z"/>        <path d="M88.9369 28.3035L88.4233 27.8974C89.2432 27.8592 89.8438 27.783 90.2252 27.6686C90.6066 27.5542 90.864 27.3253 90.9974 26.9821C91.1309 26.6389 91.1977 26.1241 91.1977 25.4376V12.3379C91.1977 11.6323 91.1309 11.1175 90.9974 10.7934C90.864 10.4692 90.6066 10.2404 90.2252 10.1069C89.8438 9.97343 89.2432 9.89716 88.4233 9.87809V8.76261C88.9572 8.78168 89.6531 8.80075 90.5112 8.81982C91.3883 8.83888 92.3513 8.84842 93.4 8.84842C94.5632 8.84842 95.5833 8.83888 96.4604 8.81982C97.3566 8.80075 98.0621 8.78168 98.577 8.76261V9.87809C97.6808 9.89716 97.0134 9.97343 96.5748 10.1069C96.1553 10.2213 95.8789 10.4501 95.7454 10.7934C95.6119 11.1175 95.5452 11.6323 95.5452 12.3379V25.4376C95.5452 26.1241 95.6119 26.6389 95.7454 26.9821C95.8789 27.3063 96.1553 27.5351 96.5748 27.6686C97.0134 27.783 97.6808 27.8592 98.577 27.8974L97.6262 28.4809C97.1113 28.4427 97.3566 28.9557 96.4604 28.9557C95.5833 28.9366 94.5632 28.9271 93.4 28.9271C92.3322 28.9271 91.3693 28.9366 90.5112 28.9557C89.6531 28.9557 89.4708 28.2654 88.9369 28.3035ZM75.2663 29.0129V27.8974C76.1625 27.8592 76.8204 27.783 77.2399 27.6686C77.6784 27.5542 77.9644 27.3253 78.0979 26.9821C78.2314 26.6389 78.2981 26.1241 78.2981 25.4376V12.3379C78.2981 11.6323 78.2314 11.1175 78.0979 10.7934C77.9644 10.4692 77.6784 10.2404 77.2399 10.1069C76.8204 9.97343 76.1625 9.89716 75.2663 9.87809V8.76261C75.7812 8.78168 76.4962 8.80075 77.4115 8.81982C78.3267 8.83888 79.3755 8.84842 80.5577 8.84842C81.5874 8.84842 82.5217 8.83888 83.3607 8.81982C84.2188 8.80075 84.8957 8.78168 85.3914 8.76261V9.87809C84.5906 9.89716 83.9899 9.97343 83.5895 10.1069C83.2082 10.2213 82.9507 10.4501 82.8173 10.7934C82.7029 11.1175 82.6456 11.6323 82.6456 12.3379V25.4376C82.6456 26.1241 82.7029 26.6389 82.8173 26.9821C82.9507 27.3063 83.2082 27.5351 83.5895 27.6686C83.9899 27.783 84.5906 27.8592 85.3914 27.8974V29.0129C84.8957 28.9747 84.2188 28.9557 83.3607 28.9557C82.5026 28.9366 81.5492 28.9271 80.5005 28.9271C79.3183 28.9271 78.2791 28.9366 77.3829 28.9557C76.4867 28.9557 75.7812 28.9747 75.2663 29.0129ZM80.9009 19.4026V18.2871H92.9424V19.4026H80.9009Z"/>    </mask>    <path d="M19.5056 29.4991C18.4188 29.4991 17.5512 29.2321 16.9029 28.6982C16.2545 28.1643 15.7016 27.2586 15.2439 25.981L14.0713 22.8348C13.7852 21.9768 13.442 21.3094 13.0416 20.8327C12.6602 20.3369 12.1931 19.9841 11.6401 19.7744C11.1062 19.5456 10.4388 19.4312 9.63794 19.4312H7.693V18.3443H9.80955C10.6867 18.3443 11.4208 18.2108 12.0119 17.9439C12.6221 17.6578 13.1465 17.1907 13.585 16.5424C14.0427 15.875 14.4526 14.9788 14.8149 13.8538C15.2725 12.519 15.7302 11.4607 16.1878 10.679C16.6454 9.87809 17.1603 9.30605 17.7323 8.96283C18.3044 8.6196 18.9717 8.44799 19.7345 8.44799C20.5735 8.44799 21.2504 8.65774 21.7652 9.07723C22.28 9.49673 22.5375 10.0497 22.5375 10.7362C22.5375 11.3082 22.3563 11.7754 21.994 12.1377C21.6508 12.4809 21.1741 12.6525 20.5639 12.6525C20.1635 12.6525 19.8298 12.5858 19.5628 12.4523C19.315 12.2997 19.1052 12.1281 18.9336 11.9374C18.762 11.7277 18.5808 11.5465 18.3902 11.394C18.2186 11.2415 18.0088 11.1652 17.7609 11.1652C17.5512 11.1652 17.351 11.2605 17.1603 11.4512C16.9887 11.6228 16.798 11.9374 16.5882 12.3951C16.3785 12.8527 16.1306 13.4915 15.8446 14.3114C15.5967 15.0169 15.3393 15.608 15.0723 16.0847C14.8244 16.5424 14.548 16.9333 14.2429 17.2574C13.9568 17.5816 13.6136 17.8581 13.2132 18.0869L13.1274 17.6292C14.1189 17.8009 14.9293 18.0678 15.5586 18.4301C16.2069 18.7924 16.7598 19.3072 17.2175 19.9746C17.6751 20.6229 18.1041 21.4905 18.5046 22.5774L19.7631 26.0096C19.9728 26.6008 20.1921 27.0107 20.4209 27.2395C20.6688 27.4684 20.9929 27.5732 21.3934 27.5542C21.6413 27.5542 21.8605 27.516 22.0512 27.4397C22.261 27.3444 22.4803 27.1919 22.7091 26.9821L23.2525 27.8116C22.7567 28.3836 22.2038 28.8126 21.5936 29.0987C20.9834 29.3656 20.2874 29.4991 19.5056 29.4991ZM1.77524 28.8031L1.60707 28.4107C2.50327 28.3726 2.63997 28.1888 3.05947 28.0744C3.49803 27.96 3.77183 27.4647 3.90531 27.1214C4.03879 26.7782 4.03194 26.2099 4.03194 25.5234V12.4237C4.03194 11.7372 4.67445 10.7974 4.52191 10.4732C4.38843 10.13 4.10241 9.89166 3.66385 9.75818C3.24435 9.62471 1.87725 9.98297 1.00012 9.9639V8.84842C1.47682 8.86749 2.15374 8.88655 3.03087 8.90562C3.908 8.92469 4.95674 8.93422 6.17709 8.93422C7.35931 8.93422 8.36991 8.92469 9.20891 8.90562C10.0479 8.88655 10.6962 8.86749 11.1538 8.84842V9.9639C10.353 9.98297 8.86568 9.45654 8.46525 9.59002C8.08389 9.72349 7.82648 9.96185 7.693 10.3051C7.55952 10.6292 8.27756 11.7372 8.27756 12.4237V25.5234C8.27756 26.2099 8.31225 26.8903 8.44573 27.2335C8.59827 27.5577 8.87522 27.8288 9.29471 27.9623C9.73328 28.0767 9.92289 28.3726 10.8 28.4107L10.8 29.0129C10.2852 28.9747 10.1909 29.0415 9.29471 29.0415C8.41758 29.0224 7.38791 29.0129 6.20569 29.0129C5.00441 29.0129 3.95567 29.0224 3.05947 29.0415C2.18234 29.0415 2.27101 28.7649 1.77524 28.8031Z" fill="#19426C"/>    <path d="M28.2096 29.0987V27.9832C29.0867 27.9451 29.735 27.8688 30.1545 27.7544C30.5931 27.6209 30.8791 27.3921 31.0126 27.0679C31.1651 26.7247 31.2414 26.2099 31.2414 25.5234V12.4237C31.2414 11.7372 31.1651 11.2319 31.0126 10.9078C30.8791 10.5645 30.5931 10.3262 30.1545 10.1927C29.735 10.0592 29.0867 9.98297 28.2096 9.9639V8.84842C28.4575 8.86749 28.7912 8.88655 29.2107 8.90562C29.6302 8.90562 30.1545 8.90562 30.7838 8.90562C31.4321 8.90562 32.1853 8.90562 33.0433 8.90562C34.3018 8.90562 35.341 8.90562 36.161 8.90562C37 8.88655 37.6387 8.87702 38.0773 8.87702C40.7278 8.87702 42.749 9.39186 44.1409 10.4215C45.5329 11.4321 46.2289 12.9004 46.2289 14.8262C46.2289 16.161 45.8857 17.3051 45.1992 18.2585C44.5128 19.2119 43.5212 19.946 42.2246 20.4608C40.928 20.9566 39.91 22.0645 38.0795 22.0645C37.6791 22.0645 37.4159 22.2018 37.0155 22.1827C36.6151 22.1446 36.7085 22.2399 36.3653 22.1827C36.0221 22.1064 35.9594 22.0054 35.5968 22.36V21.2445C35.6639 21.828 36.085 21.5153 36.5426 21.5916C37.0193 21.6488 37.0327 21.5325 37.5475 21.5325C39.1492 21.5325 39.822 19.6791 40.5657 18.8591C41.3093 18.0201 41.6812 16.714 41.6812 14.9407C41.6812 13.2245 41.3475 11.966 40.6801 11.1652C40.0318 10.3643 39.0116 9.9639 37.6197 9.9639H35.5889V25.4376C35.5889 26.1431 35.6747 26.677 35.8463 27.0393C36.037 27.3825 36.4089 27.6209 36.9618 27.7544C37.5339 27.8878 38.3824 27.9641 39.5074 27.9832V29.0987C39.1451 29.0796 38.6684 29.0701 38.0773 29.0701C37.4862 29.051 36.7997 29.0415 36.018 29.0415C35.2552 29.0224 34.4258 29.0129 33.5296 29.0129C32.3855 29.0129 31.3749 29.0224 30.4978 29.0415C29.6206 29.0605 28.8579 29.0796 28.2096 29.0987Z" fill="#FFFCF5"/>    <path d="M61.9778 29.4133C59.8803 29.4133 58.0402 28.9843 56.4576 28.1262C54.894 27.2491 53.6736 26.0287 52.7965 24.4651C51.9194 22.9016 51.4808 21.0615 51.4808 18.9449C51.4808 16.8475 51.9194 15.0074 52.7965 13.4247C53.6927 11.8421 54.9226 10.6027 56.4862 9.70648C58.0688 8.81028 59.9089 8.36218 62.0064 8.36218C64.1038 8.36218 65.9439 8.80075 67.5266 9.67788C69.1092 10.5359 70.3296 11.7468 71.1876 13.3103C72.0648 14.8739 72.5033 16.714 72.5033 18.8305C72.5033 20.9089 72.0648 22.749 71.1876 24.3507C70.3105 25.9334 69.0806 27.1728 67.498 28.069C65.9153 28.9652 64.0752 29.4133 61.9778 29.4133ZM62.035 28.355C63.179 28.355 64.1992 27.9641 65.0954 27.1823C65.9916 26.3815 66.6876 25.2755 67.1833 23.8645C67.6982 22.4344 67.9556 20.7659 67.9556 18.8591C67.9556 16.9333 67.6886 15.2648 67.1547 13.8538C66.6208 12.4427 65.8962 11.3559 64.981 10.5931C64.0848 9.81135 63.0742 9.42046 61.9492 9.42046C60.8051 9.42046 59.7849 9.82089 58.8887 10.6217C57.9925 11.4035 57.287 12.5095 56.7722 13.9396C56.2764 15.3506 56.0285 17.0095 56.0285 18.9163C56.0285 20.8422 56.2955 22.5107 56.8294 23.9217C57.3633 25.3327 58.0879 26.4291 59.0032 27.2109C59.9184 27.9737 60.929 28.355 62.035 28.355Z" fill="#FFFCF5"/>    <path d="M88.9369 28.3035L88.4233 27.8974C89.2432 27.8592 89.8438 27.783 90.2252 27.6686C90.6066 27.5542 90.864 27.3253 90.9974 26.9821C91.1309 26.6389 91.1977 26.1241 91.1977 25.4376V12.3379C91.1977 11.6323 91.1309 11.1175 90.9974 10.7934C90.864 10.4692 90.6066 10.2404 90.2252 10.1069C89.8438 9.97343 89.2432 9.89716 88.4233 9.87809V8.76261C88.9572 8.78168 89.6531 8.80075 90.5112 8.81982C91.3883 8.83888 92.3513 8.84842 93.4 8.84842C94.5632 8.84842 95.5833 8.83888 96.4604 8.81982C97.3566 8.80075 98.0621 8.78168 98.577 8.76261V9.87809C97.6808 9.89716 97.0134 9.97343 96.5748 10.1069C96.1553 10.2213 95.8789 10.4501 95.7454 10.7934C95.6119 11.1175 95.5452 11.6323 95.5452 12.3379V25.4376C95.5452 26.1241 95.6119 26.6389 95.7454 26.9821C95.8789 27.3063 96.1553 27.5351 96.5748 27.6686C97.0134 27.783 97.6808 27.8592 98.577 27.8974L97.6262 28.4809C97.1113 28.4427 97.3566 28.9557 96.4604 28.9557C95.5833 28.9366 94.5632 28.9271 93.4 28.9271C92.3322 28.9271 91.3693 28.9366 90.5112 28.9557C89.6531 28.9557 89.4708 28.2654 88.9369 28.3035ZM75.2663 29.0129V27.8974C76.1625 27.8592 76.8204 27.783 77.2399 27.6686C77.6784 27.5542 77.9644 27.3253 78.0979 26.9821C78.2314 26.6389 78.2981 26.1241 78.2981 25.4376V12.3379C78.2981 11.6323 78.2314 11.1175 78.0979 10.7934C77.9644 10.4692 77.6784 10.2404 77.2399 10.1069C76.8204 9.97343 76.1625 9.89716 75.2663 9.87809V8.76261C75.7812 8.78168 76.4962 8.80075 77.4115 8.81982C78.3267 8.83888 79.3755 8.84842 80.5577 8.84842C81.5874 8.84842 82.5217 8.83888 83.3607 8.81982C84.2188 8.80075 84.8957 8.78168 85.3914 8.76261V9.87809C84.5906 9.89716 83.9899 9.97343 83.5895 10.1069C83.2082 10.2213 82.9507 10.4501 82.8173 10.7934C82.7029 11.1175 82.6456 11.6323 82.6456 12.3379V25.4376C82.6456 26.1241 82.7029 26.6389 82.8173 26.9821C82.9507 27.3063 83.2082 27.5351 83.5895 27.6686C83.9899 27.783 84.5906 27.8592 85.3914 27.8974V29.0129C84.8957 28.9747 84.2188 28.9557 83.3607 28.9557C82.5026 28.9366 81.5492 28.9271 80.5005 28.9271C79.3183 28.9271 78.2791 28.9366 77.3829 28.9557C76.4867 28.9557 75.7812 28.9747 75.2663 29.0129ZM80.9009 19.4026V18.2871H92.9424V19.4026H80.9009Z" fill="#19426C"/>    <path d="M19.5056 29.4991C18.4188 29.4991 17.5512 29.2321 16.9029 28.6982C16.2545 28.1643 15.7016 27.2586 15.2439 25.981L14.0713 22.8348C13.7852 21.9768 13.442 21.3094 13.0416 20.8327C12.6602 20.3369 12.1931 19.9841 11.6401 19.7744C11.1062 19.5456 10.4388 19.4312 9.63794 19.4312H7.693V18.3443H9.80955C10.6867 18.3443 11.4208 18.2108 12.0119 17.9439C12.6221 17.6578 13.1465 17.1907 13.585 16.5424C14.0427 15.875 14.4526 14.9788 14.8149 13.8538C15.2725 12.519 15.7302 11.4607 16.1878 10.679C16.6454 9.87809 17.1603 9.30605 17.7323 8.96283C18.3044 8.6196 18.9717 8.44799 19.7345 8.44799C20.5735 8.44799 21.2504 8.65774 21.7652 9.07723C22.28 9.49673 22.5375 10.0497 22.5375 10.7362C22.5375 11.3082 22.3563 11.7754 21.994 12.1377C21.6508 12.4809 21.1741 12.6525 20.5639 12.6525C20.1635 12.6525 19.8298 12.5858 19.5628 12.4523C19.315 12.2997 19.1052 12.1281 18.9336 11.9374C18.762 11.7277 18.5808 11.5465 18.3902 11.394C18.2186 11.2415 18.0088 11.1652 17.7609 11.1652C17.5512 11.1652 17.351 11.2605 17.1603 11.4512C16.9887 11.6228 16.798 11.9374 16.5882 12.3951C16.3785 12.8527 16.1306 13.4915 15.8446 14.3114C15.5967 15.0169 15.3393 15.608 15.0723 16.0847C14.8244 16.5424 14.548 16.9333 14.2429 17.2574C13.9568 17.5816 13.6136 17.8581 13.2132 18.0869L13.1274 17.6292C14.1189 17.8009 14.9293 18.0678 15.5586 18.4301C16.2069 18.7924 16.7598 19.3072 17.2175 19.9746C17.6751 20.6229 18.1041 21.4905 18.5046 22.5774L19.7631 26.0096C19.9728 26.6008 20.1921 27.0107 20.4209 27.2395C20.6688 27.4684 20.9929 27.5732 21.3934 27.5542C21.6413 27.5542 21.8605 27.516 22.0512 27.4397C22.261 27.3444 22.4803 27.1919 22.7091 26.9821L23.2525 27.8116C22.7567 28.3836 22.2038 28.8126 21.5936 29.0987C20.9834 29.3656 20.2874 29.4991 19.5056 29.4991ZM1.77524 28.8031L1.60707 28.4107C2.50327 28.3726 2.63997 28.1888 3.05947 28.0744C3.49803 27.96 3.77183 27.4647 3.90531 27.1214C4.03879 26.7782 4.03194 26.2099 4.03194 25.5234V12.4237C4.03194 11.7372 4.67445 10.7974 4.52191 10.4732C4.38843 10.13 4.10241 9.89166 3.66385 9.75818C3.24435 9.62471 1.87725 9.98297 1.00012 9.9639V8.84842C1.47682 8.86749 2.15374 8.88655 3.03087 8.90562C3.908 8.92469 4.95674 8.93422 6.17709 8.93422C7.35931 8.93422 8.36991 8.92469 9.20891 8.90562C10.0479 8.88655 10.6962 8.86749 11.1538 8.84842V9.9639C10.353 9.98297 8.86568 9.45654 8.46525 9.59002C8.08389 9.72349 7.82648 9.96185 7.693 10.3051C7.55952 10.6292 8.27756 11.7372 8.27756 12.4237V25.5234C8.27756 26.2099 8.31225 26.8903 8.44573 27.2335C8.59827 27.5577 8.87522 27.8288 9.29471 27.9623C9.73328 28.0767 9.92289 28.3726 10.8 28.4107L10.8 29.0129C10.2852 28.9747 10.1909 29.0415 9.29471 29.0415C8.41758 29.0224 7.38791 29.0129 6.20569 29.0129C5.00441 29.0129 3.95567 29.0224 3.05947 29.0415C2.18234 29.0415 2.27101 28.7649 1.77524 28.8031Z" stroke="black" stroke-width="0.672656" mask="url(#path-1-outside-1_0_283)"/>    <path d="M28.2096 29.0987V27.9832C29.0867 27.9451 29.735 27.8688 30.1545 27.7544C30.5931 27.6209 30.8791 27.3921 31.0126 27.0679C31.1651 26.7247 31.2414 26.2099 31.2414 25.5234V12.4237C31.2414 11.7372 31.1651 11.2319 31.0126 10.9078C30.8791 10.5645 30.5931 10.3262 30.1545 10.1927C29.735 10.0592 29.0867 9.98297 28.2096 9.9639V8.84842C28.4575 8.86749 28.7912 8.88655 29.2107 8.90562C29.6302 8.90562 30.1545 8.90562 30.7838 8.90562C31.4321 8.90562 32.1853 8.90562 33.0433 8.90562C34.3018 8.90562 35.341 8.90562 36.161 8.90562C37 8.88655 37.6387 8.87702 38.0773 8.87702C40.7278 8.87702 42.749 9.39186 44.1409 10.4215C45.5329 11.4321 46.2289 12.9004 46.2289 14.8262C46.2289 16.161 45.8857 17.3051 45.1992 18.2585C44.5128 19.2119 43.5212 19.946 42.2246 20.4608C40.928 20.9566 39.91 22.0645 38.0795 22.0645C37.6791 22.0645 37.4159 22.2018 37.0155 22.1827C36.6151 22.1446 36.7085 22.2399 36.3653 22.1827C36.0221 22.1064 35.9594 22.0054 35.5968 22.36V21.2445C35.6639 21.828 36.085 21.5153 36.5426 21.5916C37.0193 21.6488 37.0327 21.5325 37.5475 21.5325C39.1492 21.5325 39.822 19.6791 40.5657 18.8591C41.3093 18.0201 41.6812 16.714 41.6812 14.9407C41.6812 13.2245 41.3475 11.966 40.6801 11.1652C40.0318 10.3643 39.0116 9.9639 37.6197 9.9639H35.5889V25.4376C35.5889 26.1431 35.6747 26.677 35.8463 27.0393C36.037 27.3825 36.4089 27.6209 36.9618 27.7544C37.5339 27.8878 38.3824 27.9641 39.5074 27.9832V29.0987C39.1451 29.0796 38.6684 29.0701 38.0773 29.0701C37.4862 29.051 36.7997 29.0415 36.018 29.0415C35.2552 29.0224 34.4258 29.0129 33.5296 29.0129C32.3855 29.0129 31.3749 29.0224 30.4978 29.0415C29.6206 29.0605 28.8579 29.0796 28.2096 29.0987Z" stroke="black" stroke-width="0.672656" mask="url(#path-1-outside-1_0_283)"/>    <path d="M61.9778 29.4133C59.8803 29.4133 58.0402 28.9843 56.4576 28.1262C54.894 27.2491 53.6736 26.0287 52.7965 24.4651C51.9194 22.9016 51.4808 21.0615 51.4808 18.9449C51.4808 16.8475 51.9194 15.0074 52.7965 13.4247C53.6927 11.8421 54.9226 10.6027 56.4862 9.70648C58.0688 8.81028 59.9089 8.36218 62.0064 8.36218C64.1038 8.36218 65.9439 8.80075 67.5266 9.67788C69.1092 10.5359 70.3296 11.7468 71.1876 13.3103C72.0648 14.8739 72.5033 16.714 72.5033 18.8305C72.5033 20.9089 72.0648 22.749 71.1876 24.3507C70.3105 25.9334 69.0806 27.1728 67.498 28.069C65.9153 28.9652 64.0752 29.4133 61.9778 29.4133ZM62.035 28.355C63.179 28.355 64.1992 27.9641 65.0954 27.1823C65.9916 26.3815 66.6876 25.2755 67.1833 23.8645C67.6982 22.4344 67.9556 20.7659 67.9556 18.8591C67.9556 16.9333 67.6886 15.2648 67.1547 13.8538C66.6208 12.4427 65.8962 11.3559 64.981 10.5931C64.0848 9.81135 63.0742 9.42046 61.9492 9.42046C60.8051 9.42046 59.7849 9.82089 58.8887 10.6217C57.9925 11.4035 57.287 12.5095 56.7722 13.9396C56.2764 15.3506 56.0285 17.0095 56.0285 18.9163C56.0285 20.8422 56.2955 22.5107 56.8294 23.9217C57.3633 25.3327 58.0879 26.4291 59.0032 27.2109C59.9184 27.9737 60.929 28.355 62.035 28.355Z" stroke="black" stroke-width="0.672656" mask="url(#path-1-outside-1_0_283)"/>    <path d="M88.9369 28.3035L88.4233 27.8974C89.2432 27.8592 89.8438 27.783 90.2252 27.6686C90.6066 27.5542 90.864 27.3253 90.9974 26.9821C91.1309 26.6389 91.1977 26.1241 91.1977 25.4376V12.3379C91.1977 11.6323 91.1309 11.1175 90.9974 10.7934C90.864 10.4692 90.6066 10.2404 90.2252 10.1069C89.8438 9.97343 89.2432 9.89716 88.4233 9.87809V8.76261C88.9572 8.78168 89.6531 8.80075 90.5112 8.81982C91.3883 8.83888 92.3513 8.84842 93.4 8.84842C94.5632 8.84842 95.5833 8.83888 96.4604 8.81982C97.3566 8.80075 98.0621 8.78168 98.577 8.76261V9.87809C97.6808 9.89716 97.0134 9.97343 96.5748 10.1069C96.1553 10.2213 95.8789 10.4501 95.7454 10.7934C95.6119 11.1175 95.5452 11.6323 95.5452 12.3379V25.4376C95.5452 26.1241 95.6119 26.6389 95.7454 26.9821C95.8789 27.3063 96.1553 27.5351 96.5748 27.6686C97.0134 27.783 97.6808 27.8592 98.577 27.8974L97.6262 28.4809C97.1113 28.4427 97.3566 28.9557 96.4604 28.9557C95.5833 28.9366 94.5632 28.9271 93.4 28.9271C92.3322 28.9271 91.3693 28.9366 90.5112 28.9557C89.6531 28.9557 89.4708 28.2654 88.9369 28.3035ZM75.2663 29.0129V27.8974C76.1625 27.8592 76.8204 27.783 77.2399 27.6686C77.6784 27.5542 77.9644 27.3253 78.0979 26.9821C78.2314 26.6389 78.2981 26.1241 78.2981 25.4376V12.3379C78.2981 11.6323 78.2314 11.1175 78.0979 10.7934C77.9644 10.4692 77.6784 10.2404 77.2399 10.1069C76.8204 9.97343 76.1625 9.89716 75.2663 9.87809V8.76261C75.7812 8.78168 76.4962 8.80075 77.4115 8.81982C78.3267 8.83888 79.3755 8.84842 80.5577 8.84842C81.5874 8.84842 82.5217 8.83888 83.3607 8.81982C84.2188 8.80075 84.8957 8.78168 85.3914 8.76261V9.87809C84.5906 9.89716 83.9899 9.97343 83.5895 10.1069C83.2082 10.2213 82.9507 10.4501 82.8173 10.7934C82.7029 11.1175 82.6456 11.6323 82.6456 12.3379V25.4376C82.6456 26.1241 82.7029 26.6389 82.8173 26.9821C82.9507 27.3063 83.2082 27.5351 83.5895 27.6686C83.9899 27.783 84.5906 27.8592 85.3914 27.8974V29.0129C84.8957 28.9747 84.2188 28.9557 83.3607 28.9557C82.5026 28.9366 81.5492 28.9271 80.5005 28.9271C79.3183 28.9271 78.2791 28.9366 77.3829 28.9557C76.4867 28.9557 75.7812 28.9747 75.2663 29.0129ZM80.9009 19.4026V18.2871H92.9424V19.4026H80.9009Z" stroke="black" stroke-width="0.672656" mask="url(#path-1-outside-1_0_283)"/>    <path d="M8.44836 9.93518L8.51379 9.94788C8.5741 9.97343 8.61633 10.0335 8.61633 10.1031V26.4176C8.61633 26.4246 8.61622 26.4322 8.61536 26.4391L8.61438 26.4508C8.61366 26.4613 8.61252 26.478 8.61243 26.4996C8.61224 26.5433 8.61487 26.6073 8.62708 26.6842C8.65154 26.8383 8.71373 27.0414 8.8634 27.2399C9.15674 27.6289 9.82945 28.0514 11.3947 27.9645C11.4407 27.962 11.4862 27.9777 11.5197 28.0094C11.5532 28.0412 11.5714 28.0862 11.5714 28.1324V29.2555C11.5712 29.3482 11.4962 29.4235 11.4034 29.4235H1.00012C0.907386 29.4235 0.832377 29.3482 0.832153 29.2555V28.1324C0.832153 28.0862 0.851312 28.0412 0.884888 28.0094C0.918424 27.9779 0.963913 27.9619 1.00989 27.9645C2.57468 28.0513 3.24683 27.6288 3.54016 27.2399C3.68984 27.0414 3.75202 26.8383 3.77649 26.6842C3.7887 26.6073 3.79133 26.5433 3.79114 26.4996C3.79104 26.478 3.79088 26.4613 3.79016 26.4508L3.78918 26.4391L3.78723 26.4176V10.1031L3.8009 10.0377C3.82639 9.97752 3.88576 9.93537 3.9552 9.93518H8.44836Z" fill="#FFFCF5" stroke="black" stroke-width="0.336328" stroke-linejoin="round"/>    <path d="M6.15973 1.75903C7.35755 1.75909 8.11964 2.67379 8.11969 3.83716C8.11969 3.99504 8.12419 4.13362 8.1275 4.25122C8.13088 4.37095 8.13307 4.46629 8.12848 4.54517C8.11936 4.70118 8.08686 4.75107 8.03766 4.78442C7.96541 4.83311 7.81903 4.8713 7.50446 4.89087C7.19789 4.90992 6.76804 4.9104 6.15973 4.9104C5.55168 4.9104 5.11757 4.90992 4.80426 4.89087C4.4831 4.87132 4.32376 4.83274 4.24078 4.78052C4.18084 4.74265 4.14581 4.68821 4.13141 4.53833C4.11566 4.37419 4.12946 4.16363 4.12946 3.83716C4.12951 2.6814 4.95474 1.75903 6.15973 1.75903Z" fill="#FFFCF5" stroke="black" stroke-width="0.336328"/>    <rect x="3.19634" y="4.2603" width="5.89275" height="4.94698" fill="#FFFCF5" stroke="black" stroke-width="0.336328" stroke-linejoin="round"/>    <rect x="0.831958" y="8.75273" width="10.7398" height="1.63677" fill="#FFFCF5" stroke="black" stroke-width="0.336328" stroke-linejoin="round"/>    <rect x="5.08776" y="5.44255" width="2.10965" height="2.70076" fill="#AED9DC" stroke="black" stroke-width="0.336328" stroke-linejoin="round"/>    <rect x="8.04326" y="5.44255" width="1.04566" height="2.70076" fill="#AED9DC" stroke="black" stroke-width="0.336328" stroke-linejoin="round"/>    <rect x="3.19634" y="5.44255" width="1.04566" height="2.70076" fill="#AED9DC" stroke="black" stroke-width="0.336328" stroke-linejoin="round"/>    <rect x="3.88734" y="11.5717" width="4.62899" height="3.0921" fill="#DA533B" stroke="black" stroke-width="0.336328" stroke-linejoin="round"/>    <rect x="3.88734" y="18.3104" width="4.62899" height="4.39254" fill="#DA533B" stroke="black" stroke-width="0.336328" stroke-linejoin="round"/>    <path d="M5.49249 20.1188C5.49249 19.4006 6.79293 19.3494 6.79293 20.1188V21.4523H5.49249V20.1188Z" fill="black"/>    <path d="M5.61072 12.8028C5.61072 12.2192 6.67471 12.1776 6.67471 12.8028V13.8862H5.61072V12.8028Z" fill="black"/>    <path d="M6.08362 1.65027L6.08362 1.23649L6.08362 1.00005" stroke="black" stroke-width="0.336328" stroke-linecap="round"/>    <path d="M10.3396 22.5164L10.9742 22.8895L11.4097 23.1456" stroke="black" stroke-width="0.336328" stroke-linecap="round"/>    <path d="M10.3396 14.4945L10.9814 14.1338L11.4217 13.8862" stroke="black" stroke-width="0.336328" stroke-linecap="round"/>    <path d="M2.07001 22.5164L1.43539 22.8895L0.999955 23.1456" stroke="black" stroke-width="0.336328" stroke-linecap="round"/>    <path d="M2.08215 14.4945L1.4404 14.1338L1.00008 13.8862" stroke="black" stroke-width="0.336328" stroke-linecap="round"/>    <path d="M40.6038 13.1178C39.4602 11.2239 38.1217 10.0439 35.7571 10.1622C35.7571 10.1622 35.6982 8.76551 35.7571 8.76244C41.8456 8.44585 44.7338 10.0217 45.6282 11.2854C47.1655 12.8813 47.4441 16.966 44.6144 19.4389C41.7846 21.9118 37.5663 22.9239 35.7571 22.4573V21.3342C37.117 21.3342 38.594 20.5658 39.9536 18.8516C41.6709 16.6862 41.2629 14.2093 40.6038 13.1178Z" fill="#19426C" stroke="black" stroke-width="0.336328" stroke-linecap="round"/>    <path d="M31.0284 2.77332L31.0284 11.6399" stroke="black" stroke-width="0.336328" stroke-linecap="round"/>    <path d="M30.7915 4.14221C30.8844 4.14221 30.9604 4.21731 30.9604 4.31018V7.26526C30.9604 7.35813 30.8844 7.4342 30.7915 7.4342H25.8267C25.7544 7.4342 25.6905 7.38745 25.6675 7.31897C25.6446 7.25054 25.6676 7.17504 25.7251 7.13147L27.6411 5.6803L25.7358 4.45178C25.6732 4.41136 25.6445 4.33387 25.6655 4.26233C25.6867 4.19099 25.7522 4.14221 25.8267 4.14221H30.7915Z" fill="#AED9DC" stroke="black" stroke-width="0.336328" stroke-linejoin="round"/>    <path d="M47.4612 24.3582C47.5104 24.3582 47.5572 24.3794 47.5892 24.4167C47.621 24.4539 47.6347 24.5032 47.6273 24.5515C47.4128 25.9306 46.634 27.1458 45.6868 28.0144C44.7432 28.8796 43.608 29.4235 42.6624 29.4236H28.0872C27.8985 29.4236 27.7658 29.2805 27.679 29.1404C27.5868 28.9914 27.5104 28.7892 27.4476 28.5613C27.3211 28.1025 27.2383 27.498 27.2083 26.8992C27.1783 26.3008 27.1997 25.6946 27.2884 25.2332C27.3324 25.004 27.3952 24.7975 27.4847 24.6443C27.5732 24.4927 27.7111 24.3582 27.9095 24.3582H47.4612Z" fill="#DA533B" stroke="black" stroke-width="0.336328" stroke-linecap="round" stroke-linejoin="round"/>    <path d="M27.4818 25.7084H47.3431" stroke="black" stroke-width="0.336328" stroke-linecap="round"/>    <path d="M45.3333 24.5261L45.3333 25.2273L45.3333 25.7083" stroke="black" stroke-width="0.336328" stroke-linecap="round"/>    <path d="M41.6685 24.5261L41.6685 25.2273L41.6685 25.7083" stroke="black" stroke-width="0.336328" stroke-linecap="round"/>    <path d="M37.5306 24.5261L37.5306 25.2273L37.5306 25.7083" stroke="black" stroke-width="0.336328" stroke-linecap="round"/>    <path d="M33.2747 24.5261L33.2747 25.2273L33.2747 25.7083" stroke="black" stroke-width="0.336328" stroke-linecap="round"/>    <path d="M29.3733 24.5261L29.3733 25.2273L29.3733 25.7083" stroke="black" stroke-width="0.336328" stroke-linecap="round"/>    <path d="M57.5547 7.94678L57.4581 7.61712L57.3919 7.39093" stroke="black" stroke-width="0.336328" stroke-linecap="round"/>    <path d="M66.1135 7.83508L66.2099 7.50539L66.276 7.27917" stroke="black" stroke-width="0.336328" stroke-linecap="round"/>    <path d="M72.8791 14.9236L73.2297 14.8032L73.4702 14.7207" stroke="black" stroke-width="0.336328" stroke-linecap="round"/>    <path d="M72.9972 22.5233L73.2776 22.5934L73.4701 22.6415" stroke="black" stroke-width="0.336328" stroke-linecap="round"/>    <path d="M71.8151 25.3607L72.0955 25.5711L72.288 25.7154" stroke="black" stroke-width="0.336328" stroke-linecap="round"/>    <path d="M69.687 27.9615L69.8974 28.242L70.0417 28.4344" stroke="black" stroke-width="0.336328" stroke-linecap="round"/>    <path d="M66.2585 29.7349L66.3988 30.0854L66.495 30.326" stroke="black" stroke-width="0.336328" stroke-linecap="round"/>    <path d="M71.6968 11.9719L71.9072 11.8493L72.0515 11.7652" stroke="black" stroke-width="0.336328" stroke-linecap="round"/>    <path d="M69.184 9.41052L69.3905 9.13602L69.5322 8.94768" stroke="black" stroke-width="0.336328" stroke-linecap="round"/>    <path d="M54.409 9.7561L54.215 9.47527L54.0818 9.28257" stroke="black" stroke-width="0.336328" stroke-linecap="round"/>    <path d="M52.2802 12.2719L51.9463 12.1116L51.7173 12.0016" stroke="black" stroke-width="0.336328" stroke-linecap="round"/>    <path d="M51.0132 15.3726L50.6515 15.2934L50.4033 15.2391" stroke="black" stroke-width="0.336328" stroke-linecap="round"/>    <path d="M50.8976 22.2869L50.5424 22.3912L50.2986 22.4628" stroke="black" stroke-width="0.336328" stroke-linecap="round"/>    <path d="M52.045 25.2424L51.7806 25.3827L51.5992 25.4789" stroke="black" stroke-width="0.336328" stroke-linecap="round"/>    <path d="M54.0706 27.7251L53.8668 27.9354L53.7269 28.0798" stroke="black" stroke-width="0.336328" stroke-linecap="round"/>    <path d="M57.2736 29.6167L57.1334 29.8927L57.0372 30.0821" stroke="black" stroke-width="0.336328" stroke-linecap="round"/>    <path d="M62.5782 6.64172C67.2309 6.80293 70.107 8.71842 71.8224 11.1427C73.5866 13.636 74.1115 16.6501 74.1115 18.7999C74.1114 20.9486 73.6048 23.986 71.8497 26.4913C70.0876 29.0065 67.079 30.9668 62.1212 30.9669C57.2222 30.9669 54.1268 29.0069 52.2618 26.4952C50.5191 24.1481 49.859 21.3315 49.7833 19.213L49.7755 18.799C49.7558 16.7119 50.372 13.6517 52.2286 11.1202C54.0924 8.57931 57.1979 6.58375 62.1222 6.63196L62.5782 6.64172Z" stroke="black" stroke-width="0.336328" stroke-linejoin="round"/>    <path d="M62.429 7.4093C66.7682 7.55309 69.4887 9.25122 71.1282 11.4689C72.8144 13.7498 73.343 16.5603 73.343 18.7404C73.343 20.919 72.8362 23.8096 71.1614 26.1603C69.4799 28.5204 66.6337 30.3165 62.0022 30.3165C57.3671 30.3164 54.4349 28.3841 52.6965 25.9611C50.9644 23.5466 50.4239 20.655 50.5442 18.7296C50.5279 16.8314 51.0881 13.9865 52.802 11.6202C54.5261 9.24 57.4096 7.35662 62.0042 7.40051L62.429 7.4093Z" stroke="black" stroke-width="0.336328" stroke-linejoin="round"/>    <path d="M74.8389 18.7993C74.8389 18.3372 74.4641 17.9624 74.002 17.9624C73.7466 17.9624 73.5693 17.9626 73.4395 17.9771C73.3085 17.9916 73.2623 18.0174 73.2412 18.0386C73.2201 18.0597 73.1943 18.1058 73.1797 18.2368C73.1653 18.3666 73.165 18.544 73.165 18.7993C73.165 19.0546 73.1653 19.232 73.1797 19.3618C73.1943 19.4928 73.2201 19.5389 73.2412 19.5601C73.2623 19.5812 73.3085 19.607 73.4395 19.6216C73.5693 19.636 73.7466 19.6362 74.002 19.6362C74.4641 19.6362 74.8389 19.2614 74.8389 18.7993Z" fill="#AED9DC" stroke="black" stroke-width="0.336328"/>    <path d="M49.048 18.7993C49.048 18.3372 49.4228 17.9624 49.8849 17.9624C50.1402 17.9624 50.3176 17.9626 50.4474 17.9771C50.5784 17.9916 50.6245 18.0174 50.6456 18.0386C50.6668 18.0597 50.6926 18.1058 50.7072 18.2368C50.7216 18.3666 50.7218 18.544 50.7218 18.7993C50.7218 19.0546 50.7216 19.232 50.7072 19.3618C50.6926 19.4928 50.6668 19.5389 50.6456 19.5601C50.6245 19.5812 50.5784 19.607 50.4474 19.6216C50.3176 19.636 50.1402 19.6362 49.8849 19.6362C49.4228 19.6362 49.048 19.2614 49.048 18.7993Z" fill="#AED9DC" stroke="black" stroke-width="0.336328"/>    <path d="M61.8266 5.90417C61.3645 5.90754 60.9924 6.28507 60.9958 6.74717C60.9976 7.00249 60.9992 7.17984 61.0145 7.30954C61.03 7.44041 61.0562 7.48636 61.0775 7.50733C61.0988 7.5283 61.1451 7.5538 61.2762 7.56741C61.4061 7.58089 61.5834 7.57982 61.8388 7.57796C62.0941 7.57609 62.2715 7.57458 62.4012 7.55921C62.532 7.54369 62.578 7.51752 62.5989 7.49624C62.6199 7.47496 62.6454 7.42863 62.659 7.29755C62.6725 7.16764 62.6714 6.99029 62.6696 6.73496C62.6662 6.27287 62.2887 5.9008 61.8266 5.90417Z" fill="#AED9DC" stroke="black" stroke-width="0.336328"/>    <path d="M61.8386 31.8204C61.3765 31.8238 60.999 31.4517 60.9956 30.9897C60.9937 30.7343 60.9927 30.557 61.0061 30.4271C61.0197 30.296 61.0452 30.2497 61.0662 30.2284C61.0872 30.2071 61.1331 30.1809 61.264 30.1654C61.3937 30.15 61.5711 30.1485 61.8264 30.1467C62.0817 30.1448 62.2591 30.1437 62.389 30.1572C62.52 30.1708 62.5664 30.1963 62.5877 30.2173C62.6089 30.2383 62.6351 30.2842 62.6506 30.4151C62.666 30.5448 62.6675 30.7221 62.6694 30.9774C62.6727 31.4395 62.3007 31.8171 61.8386 31.8204Z" fill="#AED9DC" stroke="black" stroke-width="0.336328"/>    <path d="M53.7578 17.2719C54.5458 17.2719 55.1433 17.2714 55.5927 17.2924C56.0371 17.3131 56.3619 17.3549 56.5908 17.4545C56.7093 17.5061 56.8063 17.5755 56.8818 17.6674C56.9569 17.7588 57.0031 17.8645 57.0322 17.9799C57.0878 18.2007 57.0869 18.4876 57.0869 18.8285C57.0869 19.1699 57.0885 19.4601 57.0331 19.6859C57.0044 19.8032 56.9583 19.9109 56.8847 20.0052C56.8105 20.1003 56.7143 20.1737 56.5956 20.2299C56.3661 20.3385 56.0404 20.3889 55.5947 20.4154C55.1442 20.4422 54.5464 20.4457 53.7578 20.4457C53.0127 20.4457 52.4466 20.4422 52.0204 20.4154C51.5991 20.3889 51.2889 20.3381 51.0693 20.2279C50.9557 20.1709 50.8641 20.0974 50.7939 20.0023C50.7243 19.9079 50.6812 19.7995 50.6542 19.683C50.6023 19.4584 50.6035 19.1702 50.6035 18.8285C50.6035 18.4871 50.602 18.2014 50.6542 17.9818C50.6815 17.8675 50.7249 17.7618 50.7958 17.6703C50.8673 17.5781 50.9605 17.5089 51.0742 17.4564C51.2932 17.3554 51.6026 17.3131 52.0224 17.2924C52.4475 17.2713 53.0134 17.2719 53.7578 17.2719Z" fill="#DA533B" stroke="black" stroke-width="0.336328"/>    <path d="M69.9542 17.2719C70.7423 17.2719 71.3398 17.2714 71.7892 17.2924C72.2336 17.3131 72.5584 17.3549 72.7872 17.4545C72.9057 17.5061 73.0028 17.5755 73.0782 17.6674C73.1533 17.7588 73.1995 17.8645 73.2286 17.9799C73.2843 18.2007 73.2833 18.4876 73.2833 18.8285C73.2833 19.1699 73.285 19.4601 73.2296 19.6859C73.2008 19.8032 73.1548 19.9109 73.0812 20.0052C73.007 20.1003 72.9107 20.1737 72.7921 20.2299C72.5626 20.3385 72.2369 20.3889 71.7911 20.4154C71.3407 20.4422 70.7428 20.4457 69.9542 20.4457C69.2092 20.4457 68.6431 20.4422 68.2169 20.4154C67.7956 20.3889 67.4854 20.3381 67.2657 20.2279C67.1522 20.1709 67.0605 20.0974 66.9904 20.0023C66.9208 19.9079 66.8777 19.7995 66.8507 19.683C66.7988 19.4584 66.7999 19.1702 66.7999 18.8285C66.7999 18.4871 66.7984 18.2014 66.8507 17.9818C66.8779 17.8675 66.9214 17.7618 66.9923 17.6703C67.0638 17.5781 67.1569 17.5089 67.2706 17.4564C67.4896 17.3554 67.7991 17.3131 68.2189 17.2924C68.644 17.2713 69.2098 17.2719 69.9542 17.2719Z" fill="#DA533B" stroke="black" stroke-width="0.336328"/>    <path d="M61.8337 7.45947C62.2863 7.45947 62.637 7.45852 62.902 7.47998C63.1626 7.5011 63.376 7.54563 63.5309 7.6626C63.696 7.78722 63.7643 7.96901 63.7956 8.18408C63.8263 8.39485 63.8259 8.67145 63.8259 9.01611C63.8259 9.36103 63.8261 9.64098 63.7956 9.85693C63.7645 10.0762 63.6976 10.2628 63.5368 10.395C63.3827 10.5215 63.1684 10.5759 62.905 10.603C62.6382 10.6305 62.2871 10.6333 61.8337 10.6333C61.4054 10.6333 61.0721 10.6297 60.819 10.6021C60.569 10.5747 60.3644 10.5206 60.2165 10.3921C60.0633 10.259 60.0004 10.0725 59.9714 9.85498C59.9427 9.63985 59.9431 9.36112 59.9431 9.01611C59.9431 8.67113 59.9425 8.39503 59.9714 8.18506C60.0006 7.97237 60.0643 7.79113 60.2214 7.66553C60.3705 7.54634 60.5758 7.50121 60.8229 7.47998C61.0742 7.45844 61.4066 7.45947 61.8337 7.45947Z" fill="#DA533B" stroke="black" stroke-width="0.336328"/>    <path d="M61.8337 27.0842C62.2863 27.0842 62.637 27.0833 62.902 27.1047C63.1626 27.1259 63.376 27.1704 63.5309 27.2874C63.696 27.412 63.7643 27.5938 63.7956 27.8088C63.8263 28.0196 63.8259 28.2962 63.8259 28.6409C63.8259 28.9858 63.8261 29.2657 63.7956 29.4817C63.7645 29.7009 63.6976 29.8875 63.5368 30.0198C63.3827 30.1463 63.1684 30.2006 62.905 30.2278C62.6382 30.2552 62.2871 30.2581 61.8337 30.2581C61.4054 30.2581 61.0721 30.2544 60.819 30.2268C60.569 30.1995 60.3644 30.1453 60.2165 30.0168C60.0633 29.8837 60.0004 29.6973 59.9714 29.4797C59.9427 29.2646 59.9431 28.9859 59.9431 28.6409C59.9431 28.2959 59.9425 28.0198 59.9714 27.8098C60.0006 27.5971 60.0643 27.4159 60.2214 27.2903C60.3705 27.1711 60.5758 27.126 60.8229 27.1047C61.0742 27.0832 61.4066 27.0842 61.8337 27.0842Z" fill="#DA533B" stroke="black" stroke-width="0.336328"/>    <path d="M95.7517 29.1865L95.8162 29.1738C95.8363 29.1655 95.8551 29.1534 95.8708 29.1377C95.9024 29.1062 95.9197 29.0632 95.9197 29.0186L95.9197 11.6484C95.9197 11.6414 95.9196 11.6339 95.9187 11.627L95.9187 11.626C95.9185 11.6239 95.9181 11.6201 95.9177 11.6152C95.917 11.6048 95.9159 11.588 95.9158 11.5664C95.9156 11.5227 95.919 11.4588 95.9314 11.3818C95.9563 11.2276 96.0187 11.0234 96.1716 10.8242C96.4719 10.4333 97.1608 10.0104 98.7605 10.0977C98.8066 10.1002 98.852 10.0835 98.8855 10.0518C98.919 10.0201 98.9381 9.97576 98.9382 9.92969L98.9382 8.68457C98.9382 8.59169 98.8622 8.5166 98.7693 8.5166L88.1462 8.5166C88.0535 8.51671 87.9783 8.59176 87.9783 8.68457L87.9783 9.92969C87.9784 9.97576 87.9975 10.0201 88.031 10.0518C88.0645 10.0834 88.11 10.1002 88.156 10.0977C89.755 10.0105 90.4436 10.4335 90.7439 10.8242C90.8968 11.0234 90.9602 11.2276 90.9851 11.3818C90.9975 11.4588 91.0009 11.5227 91.0007 11.5664C91.0006 11.588 90.9995 11.6048 90.9988 11.6152C90.9984 11.6201 90.998 11.6239 90.9978 11.626L90.9978 11.627L90.9958 11.6484L90.9958 24.4111C90.9568 24.4544 90.8942 24.4971 90.8005 24.5283C90.6837 24.5672 90.5297 24.5851 90.3484 24.5723C89.9862 24.5467 89.5336 24.3976 89.0896 24.0771C88.2352 23.4604 87.4072 22.2004 87.3562 19.957L88.7097 20.3145C88.7727 20.3311 88.8397 20.3097 88.8816 20.2598C88.9233 20.2098 88.9324 20.1401 88.905 20.0811L86.7927 15.5166C86.7656 15.458 86.7069 15.42 86.6423 15.4189C86.578 15.4181 86.5189 15.4542 86.49 15.5117L84.196 20.0762C84.1662 20.1357 84.1743 20.2074 84.2166 20.2588C84.2591 20.3101 84.3282 20.3317 84.3923 20.3135L85.6277 19.96C85.6418 22.9925 85.9483 25.2761 86.7722 26.8135C87.1968 27.6058 87.7602 28.2027 88.491 28.5996C89.2202 28.9957 90.1056 29.1865 91.1648 29.1865L95.7517 29.1865Z" fill="#FFFCF5" stroke="black" stroke-width="0.336328" stroke-linejoin="round"/>    <path d="M91.1474 29.1865L91.0829 29.1738C91.0628 29.1655 91.044 29.1534 91.0283 29.1377C90.9967 29.1062 90.9794 29.0632 90.9794 29.0186L90.9794 11.6484C90.9794 11.6414 90.9795 11.6339 90.9804 11.627L90.9804 11.626C90.9806 11.6239 90.981 11.6201 90.9814 11.6152C90.9821 11.6048 90.9832 11.588 90.9833 11.5664C90.9835 11.5227 90.9802 11.4588 90.9677 11.3818C90.9428 11.2276 90.8804 11.0234 90.7275 10.8242C90.4272 10.4333 89.7383 10.0104 88.1386 10.0977C88.0925 10.1002 88.0471 10.0835 88.0136 10.0518C87.9802 10.0201 87.961 9.97576 87.9609 9.92969L87.9609 8.68457C87.9609 8.59169 88.0369 8.5166 88.1298 8.5166L98.7529 8.5166C98.8457 8.51671 98.9208 8.59176 98.9208 8.68457L98.9208 9.92969C98.9207 9.97576 98.9016 10.0201 98.8681 10.0518C98.8346 10.0834 98.7891 10.1002 98.7431 10.0977C97.1441 10.0105 96.4555 10.4335 96.1552 10.8242C96.0023 11.0234 95.9389 11.2276 95.914 11.3818C95.9016 11.4588 95.8982 11.5227 95.8984 11.5664C95.8985 11.588 95.8996 11.6048 95.9003 11.6152C95.9007 11.6201 95.9011 11.6239 95.9013 11.626L95.9013 11.627L95.9033 11.6484L95.9033 24.4111C95.9423 24.4544 96.0049 24.4971 96.0986 24.5283C96.2154 24.5672 96.3694 24.5851 96.5507 24.5723C96.9129 24.5467 97.3655 24.3976 97.8095 24.0771C98.6639 23.4604 99.4919 22.2004 99.5429 19.957L98.1894 20.3145C98.1264 20.3311 98.0594 20.3097 98.0175 20.2598C97.9758 20.2098 97.9667 20.1401 97.9941 20.0811L100.106 15.5166C100.133 15.458 100.192 15.42 100.257 15.4189C100.321 15.4181 100.38 15.4542 100.409 15.5117L102.703 20.0762C102.733 20.1357 102.725 20.2074 102.683 20.2588C102.64 20.3101 102.571 20.3317 102.507 20.3135L101.271 19.96C101.257 22.9925 100.951 25.2761 100.127 26.8135C99.7023 27.6058 99.1389 28.2027 98.4081 28.5996C97.6789 28.9957 96.7935 29.1865 95.7343 29.1865L91.1474 29.1865Z" fill="#FFFCF5" stroke="black" stroke-width="0.336328" stroke-linejoin="round"/>    <path d="M93.5678 24.7142L92.2674 23.7684L92.0309 24.064L91.4989 24.2306C91.4989 24.2306 91.2034 24.3291 91.1443 24.467C91.0852 24.6049 90.9668 24.6444 90.7895 24.7035C90.6121 24.7626 90.6123 24.9399 90.6123 24.9399L90.2576 28.852L90.7896 29.0111L91.1443 29.0185L92.0309 29.0111L92.3265 28.32V25.531L93.5678 24.7142Z" fill="#FFFCF5"/>    <mask id="path-57-outside-2_0_283" maskUnits="userSpaceOnUse" x="89.7304" y="15.2506" width="5" height="5" fill="black">        <rect fill="white" x="89.7304" y="15.2506" width="5" height="5"/>        <path fill-rule="evenodd" clip-rule="evenodd" d="M92.2087 19.2072C93.0252 19.2072 93.687 18.5454 93.687 17.7289C93.687 16.9125 93.0252 16.2506 92.2087 16.2506C91.3923 16.2506 90.7304 16.9125 90.7304 17.7289C90.7304 18.5454 91.3923 19.2072 92.2087 19.2072ZM92.2086 18.5737C92.6752 18.5737 93.0534 18.1955 93.0534 17.7289C93.0534 17.2624 92.6752 16.8842 92.2086 16.8842C91.7421 16.8842 91.3639 17.2624 91.3639 17.7289C91.3639 18.1955 91.7421 18.5737 92.2086 18.5737Z"/>    </mask>    <path fill-rule="evenodd" clip-rule="evenodd" d="M92.2087 19.2072C93.0252 19.2072 93.687 18.5454 93.687 17.7289C93.687 16.9125 93.0252 16.2506 92.2087 16.2506C91.3923 16.2506 90.7304 16.9125 90.7304 17.7289C90.7304 18.5454 91.3923 19.2072 92.2087 19.2072ZM92.2086 18.5737C92.6752 18.5737 93.0534 18.1955 93.0534 17.7289C93.0534 17.2624 92.6752 16.8842 92.2086 16.8842C91.7421 16.8842 91.3639 17.2624 91.3639 17.7289C91.3639 18.1955 91.7421 18.5737 92.2086 18.5737Z" fill="#AED9DC"/>    <path d="M93.687 17.7289H93.3507C93.3507 18.3596 92.8394 18.8709 92.2087 18.8709V19.2072V19.5436C93.2109 19.5436 94.0234 18.7311 94.0234 17.7289H93.687ZM92.2087 16.2506V16.5869C92.8394 16.5869 93.3507 17.0982 93.3507 17.7289H93.687H94.0234C94.0234 16.7267 93.2109 15.9143 92.2087 15.9143V16.2506ZM90.7304 17.7289H91.0667C91.0667 17.0982 91.578 16.5869 92.2087 16.5869V16.2506V15.9143C91.2065 15.9143 90.3941 16.7267 90.3941 17.7289H90.7304ZM92.2087 19.2072V18.8709C91.578 18.8709 91.0667 18.3596 91.0667 17.7289H90.7304H90.3941C90.3941 18.7311 91.2065 19.5436 92.2087 19.5436V19.2072ZM93.0534 17.7289H92.7171C92.7171 18.0097 92.4894 18.2373 92.2086 18.2373V18.5737V18.91C92.8609 18.91 93.3897 18.3812 93.3897 17.7289H93.0534ZM92.2086 16.8842V17.2205C92.4894 17.2205 92.7171 17.4481 92.7171 17.7289H93.0534H93.3897C93.3897 17.0766 92.8609 16.5479 92.2086 16.5479V16.8842ZM91.3639 17.7289H91.7002C91.7002 17.4481 91.9278 17.2205 92.2086 17.2205V16.8842V16.5479C91.5563 16.5479 91.0276 17.0766 91.0276 17.7289H91.3639ZM92.2086 18.5737V18.2373C91.9278 18.2373 91.7002 18.0097 91.7002 17.7289H91.3639H91.0276C91.0276 18.3812 91.5563 18.91 92.2086 18.91V18.5737Z" fill="black" mask="url(#path-57-outside-2_0_283)"/>    <mask id="path-59-outside-3_0_283" maskUnits="userSpaceOnUse" x="94.341" y="10.8763" width="5" height="5" fill="black">        <rect fill="white" x="94.341" y="10.8763" width="5" height="5"/>        <path fill-rule="evenodd" clip-rule="evenodd" d="M96.8193 14.833C97.6358 14.833 98.2976 14.1711 98.2976 13.3547C98.2976 12.5382 97.6358 11.8763 96.8193 11.8763C96.0029 11.8763 95.341 12.5382 95.341 13.3547C95.341 14.1711 96.0029 14.833 96.8193 14.833ZM96.8192 14.1994C97.2858 14.1994 97.664 13.8212 97.664 13.3546C97.664 12.8881 97.2858 12.5099 96.8192 12.5099C96.3527 12.5099 95.9745 12.8881 95.9745 13.3546C95.9745 13.8212 96.3527 14.1994 96.8192 14.1994Z"/>    </mask>    <path fill-rule="evenodd" clip-rule="evenodd" d="M96.8193 14.833C97.6358 14.833 98.2976 14.1711 98.2976 13.3547C98.2976 12.5382 97.6358 11.8763 96.8193 11.8763C96.0029 11.8763 95.341 12.5382 95.341 13.3547C95.341 14.1711 96.0029 14.833 96.8193 14.833ZM96.8192 14.1994C97.2858 14.1994 97.664 13.8212 97.664 13.3546C97.664 12.8881 97.2858 12.5099 96.8192 12.5099C96.3527 12.5099 95.9745 12.8881 95.9745 13.3546C95.9745 13.8212 96.3527 14.1994 96.8192 14.1994Z" fill="#AED9DC"/>    <path d="M98.2976 13.3547H97.9613C97.9613 13.9854 97.45 14.4966 96.8193 14.4966V14.833V15.1693C97.8215 15.1693 98.634 14.3568 98.634 13.3547H98.2976ZM96.8193 11.8763V12.2127C97.45 12.2127 97.9613 12.724 97.9613 13.3547H98.2976H98.634C98.634 12.3525 97.8215 11.54 96.8193 11.54V11.8763ZM95.341 13.3547H95.6773C95.6773 12.724 96.1886 12.2127 96.8193 12.2127V11.8763V11.54C95.8171 11.54 95.0047 12.3525 95.0047 13.3547H95.341ZM96.8193 14.833V14.4966C96.1886 14.4966 95.6773 13.9854 95.6773 13.3547H95.341H95.0047C95.0047 14.3568 95.8171 15.1693 96.8193 15.1693V14.833ZM97.664 13.3546H97.3277C97.3277 13.6354 97.1 13.8631 96.8192 13.8631V14.1994V14.5357C97.4715 14.5357 98.0003 14.0069 98.0003 13.3546H97.664ZM96.8192 12.5099V12.8462C97.1 12.8462 97.3277 13.0739 97.3277 13.3546H97.664H98.0003C98.0003 12.7024 97.4715 12.1736 96.8192 12.1736V12.5099ZM95.9745 13.3546H96.3108C96.3108 13.0739 96.5384 12.8462 96.8192 12.8462V12.5099V12.1736C96.167 12.1736 95.6382 12.7024 95.6382 13.3546H95.9745ZM96.8192 14.1994V13.8631C96.5384 13.8631 96.3108 13.6354 96.3108 13.3546H95.9745H95.6382C95.6382 14.0069 96.1669 14.5357 96.8192 14.5357V14.1994Z" fill="black" mask="url(#path-59-outside-3_0_283)"/>    <mask id="path-61-outside-4_0_283" maskUnits="userSpaceOnUse" x="90.0851" y="2.24622" width="7" height="7" fill="black">        <rect fill="white" x="90.0851" y="2.24622" width="7" height="7"/>        <path fill-rule="evenodd" clip-rule="evenodd" d="M93.5677 8.21153C94.9389 8.21153 96.0504 7.10001 96.0504 5.72887C96.0504 4.35774 94.9389 3.24622 93.5677 3.24622C92.1966 3.24622 91.0851 4.35774 91.0851 5.72887C91.0851 7.10001 92.1966 8.21153 93.5677 8.21153ZM93.5676 7.14757C94.3511 7.14757 94.9863 6.51241 94.9863 5.7289C94.9863 4.9454 94.3511 4.31024 93.5676 4.31024C92.7841 4.31024 92.149 4.9454 92.149 5.7289C92.149 6.51241 92.7841 7.14757 93.5676 7.14757Z"/>    </mask>    <path fill-rule="evenodd" clip-rule="evenodd" d="M93.5677 8.21153C94.9389 8.21153 96.0504 7.10001 96.0504 5.72887C96.0504 4.35774 94.9389 3.24622 93.5677 3.24622C92.1966 3.24622 91.0851 4.35774 91.0851 5.72887C91.0851 7.10001 92.1966 8.21153 93.5677 8.21153ZM93.5676 7.14757C94.3511 7.14757 94.9863 6.51241 94.9863 5.7289C94.9863 4.9454 94.3511 4.31024 93.5676 4.31024C92.7841 4.31024 92.149 4.9454 92.149 5.7289C92.149 6.51241 92.7841 7.14757 93.5676 7.14757Z" fill="#FFFCF5"/>    <path d="M96.0504 5.72887H95.7141C95.7141 6.91426 94.7531 7.8752 93.5677 7.8752V8.21153V8.54786C95.1246 8.54786 96.3867 7.28576 96.3867 5.72887H96.0504ZM93.5677 3.24622V3.58254C94.7531 3.58254 95.7141 4.54349 95.7141 5.72887H96.0504H96.3867C96.3867 4.17199 95.1246 2.90989 93.5677 2.90989V3.24622ZM91.0851 5.72887H91.4214C91.4214 4.54349 92.3824 3.58254 93.5677 3.58254V3.24622V2.90989C92.0109 2.90989 90.7488 4.17199 90.7488 5.72887H91.0851ZM93.5677 8.21153V7.8752C92.3824 7.8752 91.4214 6.91426 91.4214 5.72887H91.0851H90.7488C90.7488 7.28576 92.0109 8.54786 93.5677 8.54786V8.21153ZM94.9863 5.7289H94.65C94.65 6.32666 94.1654 6.81124 93.5676 6.81124V7.14757V7.48389C94.5369 7.48389 95.3226 6.69816 95.3226 5.7289H94.9863ZM93.5676 4.31024V4.64657C94.1654 4.64657 94.65 5.13115 94.65 5.7289H94.9863H95.3226C95.3226 4.75965 94.5369 3.97392 93.5676 3.97392V4.31024ZM92.149 5.7289H92.4853C92.4853 5.13115 92.9699 4.64657 93.5676 4.64657V4.31024V3.97392C92.5984 3.97392 91.8126 4.75965 91.8126 5.7289H92.149ZM93.5676 7.14757V6.81124C92.9699 6.81124 92.4853 6.32666 92.4853 5.7289H92.149H91.8126C91.8126 6.69816 92.5984 7.48389 93.5676 7.48389V7.14757Z" fill="black" mask="url(#path-61-outside-4_0_283)"/>    <mask id="path-63-outside-5_0_283" maskUnits="userSpaceOnUse" x="94.4592" y="5.20178" width="5" height="5" fill="black">        <rect fill="white" x="94.4592" y="5.20178" width="5" height="5"/>        <path fill-rule="evenodd" clip-rule="evenodd" d="M96.9375 9.1584C97.754 9.1584 98.4158 8.49654 98.4158 7.68009C98.4158 6.86364 97.754 6.20178 96.9375 6.20178C96.1211 6.20178 95.4592 6.86364 95.4592 7.68009C95.4592 8.49654 96.1211 9.1584 96.9375 9.1584ZM96.9375 8.52483C97.4041 8.52483 97.7823 8.14662 97.7823 7.68008C97.7823 7.21354 97.4041 6.83533 96.9375 6.83533C96.471 6.83533 96.0928 7.21354 96.0928 7.68008C96.0928 8.14662 96.471 8.52483 96.9375 8.52483Z"/>    </mask>    <path fill-rule="evenodd" clip-rule="evenodd" d="M96.9375 9.1584C97.754 9.1584 98.4158 8.49654 98.4158 7.68009C98.4158 6.86364 97.754 6.20178 96.9375 6.20178C96.1211 6.20178 95.4592 6.86364 95.4592 7.68009C95.4592 8.49654 96.1211 9.1584 96.9375 9.1584ZM96.9375 8.52483C97.4041 8.52483 97.7823 8.14662 97.7823 7.68008C97.7823 7.21354 97.4041 6.83533 96.9375 6.83533C96.471 6.83533 96.0928 7.21354 96.0928 7.68008C96.0928 8.14662 96.471 8.52483 96.9375 8.52483Z" fill="#AED9DC"/>    <path d="M98.4158 7.68009H98.0795C98.0795 8.31079 97.5682 8.82207 96.9375 8.82207V9.1584V9.49473C97.9397 9.49473 98.7522 8.68229 98.7522 7.68009H98.4158ZM96.9375 6.20178V6.53811C97.5682 6.53811 98.0795 7.04939 98.0795 7.68009H98.4158H98.7522C98.7522 6.6779 97.9397 5.86545 96.9375 5.86545V6.20178ZM95.4592 7.68009H95.7956C95.7956 7.04939 96.3068 6.53811 96.9375 6.53811V6.20178V5.86545C95.9353 5.86545 95.1229 6.6779 95.1229 7.68009H95.4592ZM96.9375 9.1584V8.82207C96.3068 8.82207 95.7956 8.31079 95.7956 7.68009H95.4592H95.1229C95.1229 8.68229 95.9353 9.49473 96.9375 9.49473V9.1584ZM97.7823 7.68008H97.4459C97.4459 7.96088 97.2183 8.1885 96.9375 8.1885V8.52483V8.86116C97.5898 8.86116 98.1186 8.33237 98.1186 7.68008H97.7823ZM96.9375 6.83533V7.17166C97.2183 7.17166 97.4459 7.39929 97.4459 7.68008H97.7823H98.1186C98.1186 7.02779 97.5898 6.49901 96.9375 6.49901V6.83533ZM96.0928 7.68008H96.4291C96.4291 7.39929 96.6567 7.17166 96.9375 7.17166V6.83533V6.49901C96.2852 6.49901 95.7564 7.02779 95.7564 7.68008H96.0928ZM96.9375 8.52483V8.1885C96.6567 8.1885 96.4291 7.96088 96.4291 7.68008H96.0928H95.7564C95.7564 8.33237 96.2852 8.86116 96.9375 8.86116V8.52483Z" fill="black" mask="url(#path-63-outside-5_0_283)"/>    <mask id="path-65-outside-6_0_283" maskUnits="userSpaceOnUse" x="93.2772" y="23.8809" width="5" height="5" fill="black">        <rect fill="white" x="93.2772" y="23.8809" width="5" height="5"/>        <path fill-rule="evenodd" clip-rule="evenodd" d="M95.7555 27.8375C96.5719 27.8375 97.2338 27.1756 97.2338 26.3592C97.2338 25.5427 96.5719 24.8809 95.7555 24.8809C94.939 24.8809 94.2772 25.5427 94.2772 26.3592C94.2772 27.1756 94.939 27.8375 95.7555 27.8375ZM95.7555 27.2039C96.222 27.2039 96.6002 26.8257 96.6002 26.3592C96.6002 25.8926 96.222 25.5144 95.7555 25.5144C95.2889 25.5144 94.9107 25.8926 94.9107 26.3592C94.9107 26.8257 95.2889 27.2039 95.7555 27.2039Z"/>    </mask>    <path fill-rule="evenodd" clip-rule="evenodd" d="M95.7555 27.8375C96.5719 27.8375 97.2338 27.1756 97.2338 26.3592C97.2338 25.5427 96.5719 24.8809 95.7555 24.8809C94.939 24.8809 94.2772 25.5427 94.2772 26.3592C94.2772 27.1756 94.939 27.8375 95.7555 27.8375ZM95.7555 27.2039C96.222 27.2039 96.6002 26.8257 96.6002 26.3592C96.6002 25.8926 96.222 25.5144 95.7555 25.5144C95.2889 25.5144 94.9107 25.8926 94.9107 26.3592C94.9107 26.8257 95.2889 27.2039 95.7555 27.2039Z" fill="#DA533B"/>    <path d="M97.2338 26.3592H96.8975C96.8975 26.9899 96.3862 27.5012 95.7555 27.5012V27.8375V28.1738C96.7577 28.1738 97.5701 27.3614 97.5701 26.3592H97.2338ZM95.7555 24.8809V25.2172C96.3862 25.2172 96.8975 25.7285 96.8975 26.3592H97.2338H97.5701C97.5701 25.357 96.7577 24.5445 95.7555 24.5445V24.8809ZM94.2772 26.3592H94.6135C94.6135 25.7285 95.1248 25.2172 95.7555 25.2172V24.8809V24.5445C94.7533 24.5445 93.9408 25.357 93.9408 26.3592H94.2772ZM95.7555 27.8375V27.5012C95.1248 27.5012 94.6135 26.9899 94.6135 26.3592H94.2772H93.9408C93.9408 27.3614 94.7533 28.1738 95.7555 28.1738V27.8375ZM96.6002 26.3592H96.2639C96.2639 26.64 96.0363 26.8676 95.7555 26.8676V27.2039V27.5402C96.4078 27.5402 96.9366 27.0115 96.9366 26.3592H96.6002ZM95.7555 25.5144V25.8508C96.0363 25.8508 96.2639 26.0784 96.2639 26.3592H96.6002H96.9366C96.9366 25.7069 96.4078 25.1781 95.7555 25.1781V25.5144ZM94.9107 26.3592H95.2471C95.2471 26.0784 95.4747 25.8508 95.7555 25.8508V25.5144V25.1781C95.1032 25.1781 94.5744 25.7069 94.5744 26.3592H94.9107ZM95.7555 27.2039V26.8676C95.4747 26.8676 95.2471 26.64 95.2471 26.3592H94.9107H94.5744C94.5744 27.0115 95.1032 27.5402 95.7555 27.5402V27.2039Z" fill="black" mask="url(#path-65-outside-6_0_283)"/>    <mask id="path-67-outside-7_0_283" maskUnits="userSpaceOnUse" x="91.9766" y="12.7679" width="5" height="5" fill="black">        <rect fill="white" x="91.9766" y="12.7679" width="5" height="5"/>        <path fill-rule="evenodd" clip-rule="evenodd" d="M94.4549 16.7246C95.2713 16.7246 95.9332 16.0627 95.9332 15.2463C95.9332 14.4298 95.2713 13.7679 94.4549 13.7679C93.6384 13.7679 92.9766 14.4298 92.9766 15.2463C92.9766 16.0627 93.6384 16.7246 94.4549 16.7246ZM94.4549 16.091C94.9215 16.091 95.2997 15.7128 95.2997 15.2463C95.2997 14.7797 94.9215 14.4015 94.4549 14.4015C93.9884 14.4015 93.6102 14.7797 93.6102 15.2463C93.6102 15.7128 93.9884 16.091 94.4549 16.091Z"/>    </mask>    <path fill-rule="evenodd" clip-rule="evenodd" d="M94.4549 16.7246C95.2713 16.7246 95.9332 16.0627 95.9332 15.2463C95.9332 14.4298 95.2713 13.7679 94.4549 13.7679C93.6384 13.7679 92.9766 14.4298 92.9766 15.2463C92.9766 16.0627 93.6384 16.7246 94.4549 16.7246ZM94.4549 16.091C94.9215 16.091 95.2997 15.7128 95.2997 15.2463C95.2997 14.7797 94.9215 14.4015 94.4549 14.4015C93.9884 14.4015 93.6102 14.7797 93.6102 15.2463C93.6102 15.7128 93.9884 16.091 94.4549 16.091Z" fill="#DA533B"/>    <path d="M95.9332 15.2463H95.5969C95.5969 15.877 95.0856 16.3882 94.4549 16.3882V16.7246V17.0609C95.4571 17.0609 96.2695 16.2485 96.2695 15.2463H95.9332ZM94.4549 13.7679V14.1043C95.0856 14.1043 95.5969 14.6156 95.5969 15.2463H95.9332H96.2695C96.2695 14.2441 95.4571 13.4316 94.4549 13.4316V13.7679ZM92.9766 15.2463H93.3129C93.3129 14.6156 93.8242 14.1043 94.4549 14.1043V13.7679V13.4316C93.4527 13.4316 92.6402 14.2441 92.6402 15.2463H92.9766ZM94.4549 16.7246V16.3882C93.8242 16.3882 93.3129 15.877 93.3129 15.2463H92.9766H92.6402C92.6402 16.2485 93.4527 17.0609 94.4549 17.0609V16.7246ZM95.2997 15.2463H94.9634C94.9634 15.5271 94.7357 15.7547 94.4549 15.7547V16.091V16.4273C95.1072 16.4273 95.636 15.8986 95.636 15.2463H95.2997ZM94.4549 14.4015V14.7378C94.7357 14.7378 94.9634 14.9655 94.9634 15.2463H95.2997H95.636C95.636 14.594 95.1072 14.0652 94.4549 14.0652V14.4015ZM93.6102 15.2463H93.9465C93.9465 14.9655 94.1742 14.7378 94.4549 14.7378V14.4015V14.0652C93.8027 14.0652 93.2739 14.594 93.2739 15.2463H93.6102ZM94.4549 16.091V15.7547C94.1742 15.7547 93.9465 15.5271 93.9465 15.2463H93.6102H93.2739C93.2739 15.8986 93.8027 16.4273 94.4549 16.4273V16.091Z" fill="black" mask="url(#path-67-outside-7_0_283)"/>    <mask id="path-69-outside-8_0_283" maskUnits="userSpaceOnUse" x="90.7943" y="21.6346" width="5" height="5" fill="black">        <rect fill="white" x="90.7943" y="21.6346" width="5" height="5"/>        <path fill-rule="evenodd" clip-rule="evenodd" d="M93.2726 25.5913C94.0891 25.5913 94.7509 24.9294 94.7509 24.113C94.7509 23.2965 94.0891 22.6346 93.2726 22.6346C92.4562 22.6346 91.7943 23.2965 91.7943 24.113C91.7943 24.9294 92.4562 25.5913 93.2726 25.5913ZM93.2727 24.9577C93.7392 24.9577 94.1175 24.5795 94.1175 24.113C94.1175 23.6464 93.7392 23.2682 93.2727 23.2682C92.8062 23.2682 92.428 23.6464 92.428 24.113C92.428 24.5795 92.8062 24.9577 93.2727 24.9577Z"/>    </mask>    <path fill-rule="evenodd" clip-rule="evenodd" d="M93.2726 25.5913C94.0891 25.5913 94.7509 24.9294 94.7509 24.113C94.7509 23.2965 94.0891 22.6346 93.2726 22.6346C92.4562 22.6346 91.7943 23.2965 91.7943 24.113C91.7943 24.9294 92.4562 25.5913 93.2726 25.5913ZM93.2727 24.9577C93.7392 24.9577 94.1175 24.5795 94.1175 24.113C94.1175 23.6464 93.7392 23.2682 93.2727 23.2682C92.8062 23.2682 92.428 23.6464 92.428 24.113C92.428 24.5795 92.8062 24.9577 93.2727 24.9577Z" fill="#AED9DC"/>    <path d="M94.7509 24.113H94.4146C94.4146 24.7437 93.9033 25.2549 93.2726 25.2549V25.5913V25.9276C94.2748 25.9276 95.0873 25.1151 95.0873 24.113H94.7509ZM93.2726 22.6346V22.971C93.9033 22.971 94.4146 23.4823 94.4146 24.113H94.7509H95.0873C95.0873 23.1108 94.2748 22.2983 93.2726 22.2983V22.6346ZM91.7943 24.113H92.1306C92.1306 23.4823 92.6419 22.971 93.2726 22.971V22.6346V22.2983C92.2704 22.2983 91.458 23.1108 91.458 24.113H91.7943ZM93.2726 25.5913V25.2549C92.6419 25.2549 92.1306 24.7437 92.1306 24.113H91.7943H91.458C91.458 25.1151 92.2704 25.9276 93.2726 25.9276V25.5913ZM94.1175 24.113H93.7811C93.7811 24.3937 93.5535 24.6214 93.2727 24.6214V24.9577V25.294C93.925 25.294 94.4538 24.7652 94.4538 24.113H94.1175ZM93.2727 23.2682V23.6045C93.5535 23.6045 93.7811 23.8322 93.7811 24.113H94.1175H94.4538C94.4538 23.4607 93.925 22.9319 93.2727 22.9319V23.2682ZM92.428 24.113H92.7643C92.7643 23.8322 92.9919 23.6045 93.2727 23.6045V23.2682V22.9319C92.6204 22.9319 92.0916 23.4607 92.0916 24.113H92.428ZM93.2727 24.9577V24.6214C92.9919 24.6214 92.7643 24.3937 92.7643 24.113H92.428H92.0916C92.0916 24.7652 92.6204 25.294 93.2727 25.294V24.9577Z" fill="black" mask="url(#path-69-outside-8_0_283)"/>    <mask id="path-71-outside-9_0_283" maskUnits="userSpaceOnUse" x="96.2926" y="24.067" width="5.84225" height="5.84225" fill="black">        <rect fill="white" x="96.2926" y="24.067" width="5.84225" height="5.84225"/>        <path fill-rule="evenodd" clip-rule="evenodd" d="M98.9217 28.4154C99.7239 28.5671 100.497 28.0398 100.649 27.2376C100.801 26.4354 100.273 25.662 99.4712 25.5103C98.669 25.3585 97.8957 25.8858 97.7439 26.688C97.5921 27.4902 98.1194 28.2636 98.9217 28.4154ZM99.0394 27.7928C99.4978 27.8795 99.9397 27.5782 100.026 27.1198C100.113 26.6614 99.8119 26.2195 99.3534 26.1328C98.895 26.0461 98.4531 26.3474 98.3664 26.8058C98.2797 27.2642 98.581 27.7061 99.0394 27.7928Z"/>    </mask>    <path fill-rule="evenodd" clip-rule="evenodd" d="M98.9217 28.4154C99.7239 28.5671 100.497 28.0398 100.649 27.2376C100.801 26.4354 100.273 25.662 99.4712 25.5103C98.669 25.3585 97.8957 25.8858 97.7439 26.688C97.5921 27.4902 98.1194 28.2636 98.9217 28.4154ZM99.0394 27.7928C99.4978 27.8795 99.9397 27.5782 100.026 27.1198C100.113 26.6614 99.8119 26.2195 99.3534 26.1328C98.895 26.0461 98.4531 26.3474 98.3664 26.8058C98.2797 27.2642 98.581 27.7061 99.0394 27.7928Z" fill="#AED9DC"/>    <path d="M100.649 27.2376L100.319 27.1751C100.201 27.7948 99.6039 28.2021 98.9842 28.0849L98.9217 28.4154L98.8591 28.7458C99.8439 28.9321 100.793 28.2848 100.979 27.3001L100.649 27.2376ZM99.4712 25.5103L99.4087 25.8407C100.028 25.958 100.436 26.5554 100.319 27.1751L100.649 27.2376L100.979 27.3001C101.166 26.3154 100.518 25.3661 99.5337 25.1798L99.4712 25.5103ZM97.7439 26.688L98.0744 26.7505C98.1916 26.1308 98.789 25.7235 99.4087 25.8407L99.4712 25.5103L99.5337 25.1798C98.549 24.9935 97.5997 25.6408 97.4134 26.6255L97.7439 26.688ZM98.9217 28.4154L98.9842 28.0849C98.3645 27.9677 97.9571 27.3702 98.0744 26.7505L97.7439 26.688L97.4134 26.6255C97.2271 27.6102 97.8744 28.5595 98.8591 28.7458L98.9217 28.4154ZM100.026 27.1198L99.696 27.0573C99.6438 27.3332 99.3778 27.5146 99.1019 27.4624L99.0394 27.7928L98.9769 28.1233C99.6178 28.2445 100.236 27.8233 100.357 27.1823L100.026 27.1198ZM99.3534 26.1328L99.2909 26.4632C99.5668 26.5154 99.7482 26.7814 99.696 27.0573L100.026 27.1198L100.357 27.1823C100.478 26.5414 100.057 25.9236 99.416 25.8023L99.3534 26.1328ZM98.3664 26.8058L98.6969 26.8683C98.7491 26.5924 99.015 26.411 99.2909 26.4632L99.3534 26.1328L99.416 25.8023C98.775 25.6811 98.1572 26.1023 98.0359 26.7433L98.3664 26.8058ZM99.0394 27.7928L99.1019 27.4624C98.826 27.4102 98.6447 27.1442 98.6969 26.8683L98.3664 26.8058L98.0359 26.7433C97.9147 27.3842 98.336 28.002 98.9769 28.1233L99.0394 27.7928Z" fill="black" mask="url(#path-71-outside-9_0_283)"/>    <mask id="path-73-outside-10_0_283" maskUnits="userSpaceOnUse" x="89.6121" y="18.3243" width="5" height="5" fill="black">        <rect fill="white" x="89.6121" y="18.3243" width="5" height="5"/>        <path fill-rule="evenodd" clip-rule="evenodd" d="M92.0904 22.281C92.9068 22.281 93.5687 21.6191 93.5687 20.8027C93.5687 19.9862 92.9068 19.3243 92.0904 19.3243C91.2739 19.3243 90.6121 19.9862 90.6121 20.8027C90.6121 21.6191 91.2739 22.281 92.0904 22.281ZM92.0905 21.6474C92.557 21.6474 92.9352 21.2692 92.9352 20.8027C92.9352 20.3361 92.557 19.9579 92.0905 19.9579C91.6239 19.9579 91.2457 20.3361 91.2457 20.8027C91.2457 21.2692 91.6239 21.6474 92.0905 21.6474Z"/>    </mask>    <path fill-rule="evenodd" clip-rule="evenodd" d="M92.0904 22.281C92.9068 22.281 93.5687 21.6191 93.5687 20.8027C93.5687 19.9862 92.9068 19.3243 92.0904 19.3243C91.2739 19.3243 90.6121 19.9862 90.6121 20.8027C90.6121 21.6191 91.2739 22.281 92.0904 22.281ZM92.0905 21.6474C92.557 21.6474 92.9352 21.2692 92.9352 20.8027C92.9352 20.3361 92.557 19.9579 92.0905 19.9579C91.6239 19.9579 91.2457 20.3361 91.2457 20.8027C91.2457 21.2692 91.6239 21.6474 92.0905 21.6474Z" fill="#DA533B"/>    <path d="M93.5687 20.8027H93.2324C93.2324 21.4333 92.7211 21.9446 92.0904 21.9446V22.281V22.6173C93.0926 22.6173 93.905 21.8048 93.905 20.8027H93.5687ZM92.0904 19.3243V19.6607C92.7211 19.6607 93.2324 20.172 93.2324 20.8027H93.5687H93.905C93.905 19.8005 93.0926 18.988 92.0904 18.988V19.3243ZM90.6121 20.8027H90.9484C90.9484 20.172 91.4597 19.6607 92.0904 19.6607V19.3243V18.988C91.0882 18.988 90.2757 19.8005 90.2757 20.8027H90.6121ZM92.0904 22.281V21.9446C91.4597 21.9446 90.9484 21.4333 90.9484 20.8027H90.6121H90.2757C90.2757 21.8048 91.0882 22.6173 92.0904 22.6173V22.281ZM92.9352 20.8027H92.5989C92.5989 21.0834 92.3713 21.3111 92.0905 21.3111V21.6474V21.9837C92.7428 21.9837 93.2715 21.4549 93.2715 20.8027H92.9352ZM92.0905 19.9579V20.2942C92.3713 20.2942 92.5989 20.5219 92.5989 20.8027H92.9352H93.2715C93.2715 20.1504 92.7428 19.6216 92.0905 19.6216V19.9579ZM91.2457 20.8027H91.582C91.582 20.5219 91.8097 20.2942 92.0905 20.2942V19.9579V19.6216C91.4382 19.6216 90.9094 20.1504 90.9094 20.8027H91.2457ZM92.0905 21.6474V21.3111C91.8097 21.3111 91.582 21.0834 91.582 20.8027H91.2457H90.9094C90.9094 21.4549 91.4382 21.9837 92.0905 21.9837V21.6474Z" fill="black" mask="url(#path-73-outside-10_0_283)"/>    <mask id="path-75-outside-11_0_283" maskUnits="userSpaceOnUse" x="95.8779" y="8.27551" width="5" height="5" fill="black">        <rect fill="white" x="95.8779" y="8.27551" width="5" height="5"/>        <path fill-rule="evenodd" clip-rule="evenodd" d="M98.3562 12.2321C99.1727 12.2321 99.8345 11.5703 99.8345 10.7538C99.8345 9.93737 99.1727 9.27551 98.3562 9.27551C97.5398 9.27551 96.8779 9.93737 96.8779 10.7538C96.8779 11.5703 97.5398 12.2321 98.3562 12.2321ZM98.3562 11.5986C98.8228 11.5986 99.201 11.2204 99.201 10.7538C99.201 10.2873 98.8228 9.90907 98.3562 9.90907C97.8897 9.90907 97.5115 10.2873 97.5115 10.7538C97.5115 11.2204 97.8897 11.5986 98.3562 11.5986Z"/>    </mask>    <path fill-rule="evenodd" clip-rule="evenodd" d="M98.3562 12.2321C99.1727 12.2321 99.8345 11.5703 99.8345 10.7538C99.8345 9.93737 99.1727 9.27551 98.3562 9.27551C97.5398 9.27551 96.8779 9.93737 96.8779 10.7538C96.8779 11.5703 97.5398 12.2321 98.3562 12.2321ZM98.3562 11.5986C98.8228 11.5986 99.201 11.2204 99.201 10.7538C99.201 10.2873 98.8228 9.90907 98.3562 9.90907C97.8897 9.90907 97.5115 10.2873 97.5115 10.7538C97.5115 11.2204 97.8897 11.5986 98.3562 11.5986Z" fill="#DA533B"/>    <path d="M99.8345 10.7538H99.4982C99.4982 11.3845 98.9869 11.8958 98.3562 11.8958V12.2321V12.5685C99.3584 12.5685 100.171 11.756 100.171 10.7538H99.8345ZM98.3562 9.27551V9.61184C98.9869 9.61184 99.4982 10.1231 99.4982 10.7538H99.8345H100.171C100.171 9.75163 99.3584 8.93918 98.3562 8.93918V9.27551ZM96.8779 10.7538H97.2143C97.2143 10.1231 97.7255 9.61184 98.3562 9.61184V9.27551V8.93918C97.354 8.93918 96.5416 9.75163 96.5416 10.7538H96.8779ZM98.3562 12.2321V11.8958C97.7255 11.8958 97.2143 11.3845 97.2143 10.7538H96.8779H96.5416C96.5416 11.756 97.354 12.5685 98.3562 12.5685V12.2321ZM99.201 10.7538H98.8646C98.8646 11.0346 98.637 11.2622 98.3562 11.2622V11.5986V11.9349C99.0085 11.9349 99.5373 11.4061 99.5373 10.7538H99.201ZM98.3562 9.90907V10.2454C98.637 10.2454 98.8646 10.473 98.8646 10.7538H99.201H99.5373C99.5373 10.1015 99.0085 9.57275 98.3562 9.57275V9.90907ZM97.5115 10.7538H97.8478C97.8478 10.473 98.0754 10.2454 98.3562 10.2454V9.90907V9.57275C97.7039 9.57275 97.1751 10.1015 97.1751 10.7538H97.5115ZM98.3562 11.5986V11.2622C98.0754 11.2622 97.8478 11.0346 97.8478 10.7538H97.5115H97.1751C97.1751 11.4061 97.7039 11.9349 98.3562 11.9349V11.5986Z" fill="black" mask="url(#path-75-outside-11_0_283)"/>    <rect x="94.2784" y="15.8148" width="2.15904" height="0.763859" rx="0.38193" transform="rotate(131.993 94.2784 15.8148)" fill="white" stroke="black" stroke-width="0.336328" stroke-linejoin="round"/>    <rect x="94.9302" y="5.85114" width="1.95144" height="0.763859" rx="0.38193" transform="rotate(32.6932 94.9302 5.85114)" fill="white" stroke="black" stroke-width="0.336328" stroke-linejoin="round"/>    <rect x="97.5822" y="7.98788" width="2.11608" height="0.763859" rx="0.38193" transform="rotate(64.8653 97.5822 7.98788)" fill="white" stroke="black" stroke-width="0.336328" stroke-linejoin="round"/>    <rect x="94.972" y="26.2893" width="2.17265" height="0.763859" rx="0.38193" transform="rotate(-139.076 94.972 26.2893)" fill="white" stroke="black" stroke-width="0.336328" stroke-linejoin="round"/>    <rect x="98.5067" y="27.1783" width="2.17265" height="0.763859" rx="0.38193" transform="rotate(-175.223 98.5067 27.1783)" fill="white" stroke="black" stroke-width="0.336328" stroke-linejoin="round"/>    <rect x="92.5326" y="21.2367" width="2.3462" height="0.763859" rx="0.38193" transform="rotate(69.932 92.5326 21.2367)" fill="white" stroke="black" stroke-width="0.336328" stroke-linejoin="round"/>    <rect x="92.5506" y="18.1423" width="2.12887" height="0.763859" rx="0.38193" transform="rotate(94.7561 92.5506 18.1423)" fill="white" stroke="black" stroke-width="0.336328" stroke-linejoin="round"/>    <rect x="98.4647" y="11.3657" width="2.04015" height="0.763859" rx="0.38193" transform="rotate(120.724 98.4647 11.3657)" fill="white" stroke="black" stroke-width="0.336328" stroke-linejoin="round"/>    <rect x="96.6557" y="14.0169" width="1.83179" height="0.763859" rx="0.38193" transform="rotate(141.147 96.6557 14.0169)" fill="white" stroke="black" stroke-width="0.336328" stroke-linejoin="round"/></svg>