<svg width="43" height="43" viewBox="0 0 43 43" fill="none" xmlns="http://www.w3.org/2000/svg">
    <path d="M43 21.5C43 9.62588 33.3741 0 21.5 0C9.62588 0 0 9.62588 0 21.5C0 33.3741 9.62588 43 21.5 43C33.3741 43 43 33.3741 43 21.5Z"
          fill="#2787F5"/>
    <path fill-rule="evenodd" clip-rule="evenodd"
          d="M34.0469 15.3094C34.2286 14.7409 34.0469 14.3232 33.182 14.3232H30.3222C29.595 14.3232 29.2598 14.6841 29.078 15.0819C29.078 15.0819 27.6237 18.4073 25.5634 20.5673C24.8969 21.1925 24.5939 21.3915 24.2303 21.3915C24.0485 21.3915 23.7854 21.1925 23.7854 20.6241V15.3094C23.7854 14.6272 23.5744 14.3232 22.9684 14.3232H18.4743C18.0199 14.3232 17.7466 14.6398 17.7466 14.9399C17.7466 15.5865 18.7767 15.7356 18.8829 17.5546V21.5052C18.8829 22.3714 18.7161 22.5284 18.3525 22.5284C17.3831 22.5284 15.0247 19.1882 13.6261 15.3662C13.3519 14.6233 13.077 14.3232 12.3461 14.3232H9.48629C8.66917 14.3232 8.50574 14.6841 8.50574 15.0819C8.50574 15.7925 9.4753 19.3168 13.0201 23.9779C15.3833 27.161 18.7129 28.8865 21.7427 28.8865C23.5606 28.8865 23.7854 28.5033 23.7854 27.8432V25.4374C23.7854 24.6709 23.9577 24.5178 24.5333 24.5178C24.9575 24.5178 25.6847 24.7168 27.3814 26.2516C29.3204 28.0705 29.6401 28.8865 30.7308 28.8865H33.5906C34.4077 28.8865 34.8162 28.5033 34.5806 27.747C34.3226 26.9932 33.3968 25.8996 32.1684 24.6031C31.5018 23.8642 30.502 23.0684 30.199 22.6704C29.7749 22.1589 29.896 21.9315 30.199 21.4768C30.199 21.4768 33.6833 16.8725 34.0469 15.3094Z"
          fill="white"/>
</svg>
