<svg width="401" height="164" viewBox="0 0 401 164" fill="none" xmlns="http://www.w3.org/2000/svg">
    <path d="M-6.99988 2C18.3526 2 18.3526 30.2947 43.6778 30.2947C69.0031 30.2947 69.0303 2 94.3828 2C119.735 2 119.735 30.2947 145.088 30.2947C170.44 30.2947 170.413 2 195.738 2C221.063 2 221.091 30.2947 246.443 30.2947C271.796 30.2947 271.796 2 297.148 2C322.501 2 322.501 30.2947 347.853 30.2947C373.206 30.2947 373.206 2 398.558 2" stroke="#AED9DC" stroke-width="4" stroke-linecap="round" stroke-linejoin="round"/>
    <path d="M-6.99988 42.87C18.3526 42.87 18.3526 71.1647 43.6778 71.1647C69.0031 71.1647 69.0303 42.87 94.3828 42.87C119.735 42.87 119.735 71.1647 145.088 71.1647C170.44 71.1647 170.413 42.87 195.738 42.87C221.063 42.87 221.091 71.1647 246.443 71.1647C271.796 71.1647 271.796 42.87 297.148 42.87C322.501 42.87 322.501 71.1647 347.853 71.1647C373.206 71.1647 373.206 42.87 398.558 42.87" stroke="#AED9DC" stroke-width="4" stroke-linecap="round" stroke-linejoin="round"/>
    <path d="M-7.00012 83.7404C18.3524 83.7404 18.3524 112.035 43.6776 112.035C69.0028 112.035 69.0301 83.7404 94.3826 83.7404C119.735 83.7404 119.735 112.035 145.088 112.035C170.44 112.035 170.413 83.7404 195.738 83.7404C221.063 83.7404 221.091 112.035 246.443 112.035C271.795 112.035 271.795 83.7404 297.148 83.7404C322.5 83.7404 322.5 112.035 347.853 112.035C373.205 112.035 373.205 83.7404 398.558 83.7404" stroke="#AED9DC" stroke-width="4" stroke-linecap="round" stroke-linejoin="round"/>
    <path d="M-7.00012 124.61C18.3524 124.61 18.3524 152.905 43.6776 152.905C69.0028 152.905 69.0301 124.61 94.3826 124.61C119.735 124.61 119.735 152.905 145.088 152.905C170.44 152.905 170.413 124.61 195.738 124.61C221.063 124.61 221.091 152.905 246.443 152.905C271.795 152.905 271.795 124.61 297.148 124.61C322.5 124.61 322.5 152.905 347.853 152.905C373.205 152.905 373.205 124.61 398.558 124.61" stroke="#AED9DC" stroke-width="4" stroke-linecap="round" stroke-linejoin="round"/>
    <path d="M-6.99976 165.481C18.3527 165.481 18.3527 193.775 43.678 193.775C69.0032 193.775 69.0304 165.481 94.3829 165.481C119.735 165.481 119.735 193.775 145.088 193.775C170.44 193.775 170.413 165.481 195.738 165.481C221.064 165.481 221.091 193.775 246.443 193.775C271.796 193.775 271.796 165.481 297.148 165.481C322.501 165.481 322.501 193.775 347.853 193.775C373.206 193.775 373.206 165.481 398.558 165.481" stroke="#AED9DC" stroke-width="4" stroke-linecap="round" stroke-linejoin="round"/>
</svg>
