<svg width="407" height="114" viewBox="0 0 407 114" fill="none" xmlns="http://www.w3.org/2000/svg">
    <path d="M17.0691 4.1487C18.7214 -22.6864 31.7819 -64.0025 73.7262 -54.1492C100.418 -47.879 96.7487 -8.95093 69.1763 -4.04688C80.1165 -12.7762 74.8094 -41.1071 55.0658 -30.6252C33.0437 -18.9336 47.0713 18.9513 75.0078 14.2714C99.1436 10.2283 110.609 -8.51315 113.009 -20.4948"
          stroke="#AED9DC" stroke-width="4" stroke-linecap="round" stroke-linejoin="round"/>
    <path d="M56.458 78.3411C58.1103 51.506 71.1709 10.1898 113.115 20.0432C139.807 26.3134 136.138 65.2414 108.565 70.1455C119.505 61.4162 114.198 33.0853 94.4547 43.5672C72.4326 55.2588 86.4602 93.1436 114.397 88.4638C138.533 84.4206 149.998 65.6792 152.398 53.6976"
          stroke="#AED9DC" stroke-width="4" stroke-linecap="round" stroke-linejoin="round"/>
    <path d="M156.078 25.7938C157.731 -1.04124 170.791 -42.3574 212.735 -32.5041C239.427 -26.2339 235.758 12.6942 208.185 17.5982C219.126 8.86891 213.818 -19.462 194.075 -8.98006C172.053 2.71151 186.08 40.5964 214.017 35.9165C238.153 31.8734 249.834 11.7054 252.234 -0.276212"
          stroke="#AED9DC" stroke-width="4" stroke-linecap="round" stroke-linejoin="round"/>
    <path d="M152.399 53.7C155.867 38.2308 155.679 30.5431 156.607 21.2897" stroke="#AED9DC" stroke-width="4"
          stroke-linecap="round" stroke-linejoin="round"/>
    <path d="M252.234 -0.276304C255.702 -15.7455 255.561 -21.5113 256.489 -30.7646" stroke="#AED9DC" stroke-width="4"
          stroke-linecap="round" stroke-linejoin="round"/>
    <path d="M256.18 -27.6801C257.832 -54.5151 271.029 -95.574 312.974 -85.7207C339.665 -79.4504 335.996 -40.5224 308.424 -35.6183C319.364 -44.3477 314.057 -72.6786 294.313 -62.1966C272.291 -50.5051 286.319 -12.6202 314.255 -17.3001C338.391 -21.3432 349.856 -40.0846 352.256 -52.0662"
          stroke="#AED9DC" stroke-width="4" stroke-linecap="round" stroke-linejoin="round"/>
</svg>
